/* XPM */
static char *_6d381020e004b35f44f96685f43be01HR83dQayZ6Hbhfqm[] = {
/* columns rows colors chars-per-pixel */
"64 64 6 1 ",
"  c None",
". c black",
"X c #F76A22",
"o c #F77622",
"O c #FEAE34",
"+ c #FEE761",
/* pixels */
"                                                                ",
"                                                                ",
"                                                                ",
"                                                                ",
"                                                                ",
"                                                                ",
"                                                                ",
"                                                                ",
"                                                                ",
"                                                                ",
"                                                                ",
"                                                                ",
"                                                                ",
"                                                                ",
"                       ..................                       ",
"                       ..................                       ",
"                       ..................                       ",
"                    ...++++++++++++++++++...                    ",
"                    ...++++++++++++++++++...                    ",
"                    ...++++++++++++++++++...                    ",
"                 ...oooOOOOOOOOOOOOOOOOOO+++...                 ",
"                 ...oooOOOOOOOOOOOOOOOOOO+++...                 ",
"                 ...oooOOOOOOOOOOOOOOOOOO+++...                 ",
"              ...oooOOOOOO++++++++++++OOOOOO+++...              ",
"              ...oooOOOOOO++++++++++++OOOOOO+++...              ",
"              ...oooOOOOOO++++++++++++OOOOOO+++...              ",
"              ...oooOOOXXXOOOOOOOOOOOO+++OOO+++...              ",
"              ...oooOOOXXXOOOOOOOOOOOO+++OOO+++...              ",
"              ...oooOOOXXXOOOOOOOOOOOO+++OOO+++...              ",
"              ...oooOOOXXXOOOOOOOOOOOO+++OOO+++...              ",
"              ...oooOOOXXXOOOOOOOOOOOO+++OOO+++...              ",
"              ...oooOOOXXXOOOOOOOOOOOO+++OOO+++...              ",
"              ...oooOOOXXXOOOOOOOOOOOO+++OOO+++...              ",
"              ...oooOOOXXXOOOOOOOOOOOO+++OOO+++...              ",
"              ...oooOOOXXXOOOOOOOOOOOO+++OOO+++...              ",
"              ...oooOOOXXXOOOOOOOOOOOO+++OOO+++...              ",
"              ...oooOOOXXXOOOOOOOOOOOO+++OOO+++...              ",
"              ...oooOOOXXXOOOOOOOOOOOO+++OOO+++...              ",
"              ...oooOOOOOOXXXXXXXXXXXXOOOOOO+++...              ",
"              ...oooOOOOOOXXXXXXXXXXXXOOOOOO+++...              ",
"              ...oooOOOOOOXXXXXXXXXXXXOOOOOO+++...              ",
"                 ...oooOOOOOOOOOOOOOOOOOO+++...                 ",
"                 ...oooOOOOOOOOOOOOOOOOOO+++...                 ",
"                 ...oooOOOOOOOOOOOOOOOOOO+++...                 ",
"                    ...oooooooooooooooooo...                    ",
"                    ...oooooooooooooooooo...                    ",
"                    ...oooooooooooooooooo...                    ",
"                       ..................                       ",
"                       ..................                       ",
"                       ..................                       ",
"                                                                ",
"                                                                ",
"                                                                ",
"                                                                ",
"                                                                ",
"                                                                ",
"                                                                ",
"                                                                ",
"                                                                ",
"                                                                ",
"                                                                ",
"                                                                ",
"                                                                ",
"                                                                "
};
