/* XPM */
static char *result[] = {
/* columns rows colors chars-per-pixel */
"64 64 6 1 ",
"  c black",
". c #F76A22",
"X c #F77622",
"o c #FEAE34",
"O c #FEE761",
"+ c None",
/* pixels */
"++++++++++++++++++++++++++++++++++++++++++++++++++++++++++++++++",
"++++++++++++++++++++++++++++++++++++++++++++++++++++++++++++++++",
"++++++++++++++++++++++++++++++++++++++++++++++++++++++++++++++++",
"++++++++++++++++++++++++++++++++++++++++++++++++++++++++++++++++",
"++++++++++++++++++++++++++++++++++++++++++++++++++++++++++++++++",
"++++++++++++++++++++++++++++++++++++++++++++++++++++++++++++++++",
"++++++++++++++++++++++++++++++++++++++++++++++++++++++++++++++++",
"++++++++++++++++++++++++++++++++++++++++++++++++++++++++++++++++",
"++++++++++++++++++++++++++++++++++++++++++++++++++++++++++++++++",
"++++++++++++++++++++++++++++++++++++++++++++++++++++++++++++++++",
"++++++++++++++++++++++++++++++++++++++++++++++++++++++++++++++++",
"++++++++++++++++++++++++++++++++++++++++++++++++++++++++++++++++",
"++++++++++++++++++++++++++++++++++++++++++++++++++++++++++++++++",
"++++++++++++++++++++++++++++++++++++++++++++++++++++++++++++++++",
"++++++++++++++++++++++++++            ++++++++++++++++++++++++++",
"++++++++++++++++++++++++++            ++++++++++++++++++++++++++",
"++++++++++++++++++++++++++            ++++++++++++++++++++++++++",
"+++++++++++++++++++++++   XXXXXXOOOOOO   +++++++++++++++++++++++",
"+++++++++++++++++++++++   XXXXXXOOOOOO   +++++++++++++++++++++++",
"+++++++++++++++++++++++   XXXXXXOOOOOO   +++++++++++++++++++++++",
"++++++++++++++++++++   XXXXXXoooooooooOOO   ++++++++++++++++++++",
"++++++++++++++++++++   XXXXXXoooooooooOOO   ++++++++++++++++++++",
"++++++++++++++++++++   XXXXXXoooooooooOOO   ++++++++++++++++++++",
"+++++++++++++++++   XXXXXXooooooOOOooooooOOO   +++++++++++++++++",
"+++++++++++++++++   XXXXXXooooooOOOooooooOOO   +++++++++++++++++",
"+++++++++++++++++   XXXXXXooooooOOOooooooOOO   +++++++++++++++++",
"+++++++++++++++++   XXXXXXooo...oooOOOoooOOO   +++++++++++++++++",
"+++++++++++++++++   XXXXXXooo...oooOOOoooOOO   +++++++++++++++++",
"+++++++++++++++++   XXXXXXooo...oooOOOoooOOO   +++++++++++++++++",
"+++++++++++++++++   XXXXXXooo...oooOOOoooOOO   +++++++++++++++++",
"+++++++++++++++++   XXXXXXooo...oooOOOoooOOO   +++++++++++++++++",
"+++++++++++++++++   XXXXXXooo...oooOOOoooOOO   +++++++++++++++++",
"+++++++++++++++++   XXXXXXooo...oooOOOoooOOO   +++++++++++++++++",
"+++++++++++++++++   XXXXXXooo...oooOOOoooOOO   +++++++++++++++++",
"+++++++++++++++++   XXXXXXooo...oooOOOoooOOO   +++++++++++++++++",
"+++++++++++++++++   XXXXXXooo...oooOOOoooOOO   +++++++++++++++++",
"+++++++++++++++++   XXXXXXooo...oooOOOoooOOO   +++++++++++++++++",
"+++++++++++++++++   XXXXXXooo...oooOOOoooOOO   +++++++++++++++++",
"+++++++++++++++++   XXXXXXoooooo...ooooooOOO   +++++++++++++++++",
"+++++++++++++++++   XXXXXXoooooo...ooooooOOO   +++++++++++++++++",
"+++++++++++++++++   XXXXXXoooooo...ooooooOOO   +++++++++++++++++",
"++++++++++++++++++++   XXXXXXoooooooooOOO   ++++++++++++++++++++",
"++++++++++++++++++++   XXXXXXoooooooooOOO   ++++++++++++++++++++",
"++++++++++++++++++++   XXXXXXoooooooooOOO   ++++++++++++++++++++",
"+++++++++++++++++++++++   XXXXXXXXXXXX   +++++++++++++++++++++++",
"+++++++++++++++++++++++   XXXXXXXXXXXX   +++++++++++++++++++++++",
"+++++++++++++++++++++++   XXXXXXXXXXXX   +++++++++++++++++++++++",
"++++++++++++++++++++++++++            ++++++++++++++++++++++++++",
"++++++++++++++++++++++++++            ++++++++++++++++++++++++++",
"++++++++++++++++++++++++++            ++++++++++++++++++++++++++",
"++++++++++++++++++++++++++++++++++++++++++++++++++++++++++++++++",
"++++++++++++++++++++++++++++++++++++++++++++++++++++++++++++++++",
"++++++++++++++++++++++++++++++++++++++++++++++++++++++++++++++++",
"++++++++++++++++++++++++++++++++++++++++++++++++++++++++++++++++",
"++++++++++++++++++++++++++++++++++++++++++++++++++++++++++++++++",
"++++++++++++++++++++++++++++++++++++++++++++++++++++++++++++++++",
"++++++++++++++++++++++++++++++++++++++++++++++++++++++++++++++++",
"++++++++++++++++++++++++++++++++++++++++++++++++++++++++++++++++",
"++++++++++++++++++++++++++++++++++++++++++++++++++++++++++++++++",
"++++++++++++++++++++++++++++++++++++++++++++++++++++++++++++++++",
"++++++++++++++++++++++++++++++++++++++++++++++++++++++++++++++++",
"++++++++++++++++++++++++++++++++++++++++++++++++++++++++++++++++",
"++++++++++++++++++++++++++++++++++++++++++++++++++++++++++++++++",
"++++++++++++++++++++++++++++++++++++++++++++++++++++++++++++++++"
};
