/* XPM */
static char *result[] = {
/* columns rows colors chars-per-pixel */
"64 64 6 1 ",
"  c black",
". c #F76A22",
"X c #F77622",
"o c #FEAE34",
"O c #FEE761",
"+ c None",
/* pixels */
"++++++++++++++++++++++++++++++++++++++++++++++++++++++++++++++++",
"++++++++++++++++++++++++++++++++++++++++++++++++++++++++++++++++",
"++++++++++++++++++++++++++++++++++++++++++++++++++++++++++++++++",
"++++++++++++++++++++++++++++++++++++++++++++++++++++++++++++++++",
"++++++++++++++++++++++++++++++++++++++++++++++++++++++++++++++++",
"++++++++++++++++++++++++++++++++++++++++++++++++++++++++++++++++",
"++++++++++++++++++++++++++++++++++++++++++++++++++++++++++++++++",
"++++++++++++++++++++++++++++++++++++++++++++++++++++++++++++++++",
"++++++++++++++++++++++++++++++++++++++++++++++++++++++++++++++++",
"++++++++++++++++++++++++++++++++++++++++++++++++++++++++++++++++",
"++++++++++++++++++++++++++++++++++++++++++++++++++++++++++++++++",
"++++++++++++++++++++++++++++++++++++++++++++++++++++++++++++++++",
"++++++++++++++++++++++++++++++++++++++++++++++++++++++++++++++++",
"++++++++++++++++++++++++++++++++++++++++++++++++++++++++++++++++",
"+++++++++++++++++++++++++++++      +++++++++++++++++++++++++++++",
"+++++++++++++++++++++++++++++      +++++++++++++++++++++++++++++",
"+++++++++++++++++++++++++++++      +++++++++++++++++++++++++++++",
"++++++++++++++++++++++++++   OOOXXX   ++++++++++++++++++++++++++",
"++++++++++++++++++++++++++   OOOXXX   ++++++++++++++++++++++++++",
"++++++++++++++++++++++++++   OOOXXX   ++++++++++++++++++++++++++",
"+++++++++++++++++++++++   OOOoooXXXXXX   +++++++++++++++++++++++",
"+++++++++++++++++++++++   OOOoooXXXXXX   +++++++++++++++++++++++",
"+++++++++++++++++++++++   OOOoooXXXXXX   +++++++++++++++++++++++",
"++++++++++++++++++++   ooooooOOOXXXXXXXXX   ++++++++++++++++++++",
"++++++++++++++++++++   ooooooOOOXXXXXXXXX   ++++++++++++++++++++",
"++++++++++++++++++++   ooooooOOOXXXXXXXXX   ++++++++++++++++++++",
"++++++++++++++++++++   oooOOO...XXXXXXXXX   ++++++++++++++++++++",
"++++++++++++++++++++   oooOOO...XXXXXXXXX   ++++++++++++++++++++",
"++++++++++++++++++++   oooOOO...XXXXXXXXX   ++++++++++++++++++++",
"++++++++++++++++++++   oooOOO...XXXXXXXXX   ++++++++++++++++++++",
"++++++++++++++++++++   oooOOO...XXXXXXXXX   ++++++++++++++++++++",
"++++++++++++++++++++   oooOOO...XXXXXXXXX   ++++++++++++++++++++",
"++++++++++++++++++++   oooOOO...XXXXXXXXX   ++++++++++++++++++++",
"++++++++++++++++++++   oooOOO...XXXXXXXXX   ++++++++++++++++++++",
"++++++++++++++++++++   oooOOO...XXXXXXXXX   ++++++++++++++++++++",
"++++++++++++++++++++   oooOOO...XXXXXXXXX   ++++++++++++++++++++",
"++++++++++++++++++++   oooOOO...XXXXXXXXX   ++++++++++++++++++++",
"++++++++++++++++++++   oooOOO...XXXXXXXXX   ++++++++++++++++++++",
"++++++++++++++++++++   oooooo...XXXXXXXXX   ++++++++++++++++++++",
"++++++++++++++++++++   oooooo...XXXXXXXXX   ++++++++++++++++++++",
"++++++++++++++++++++   oooooo...XXXXXXXXX   ++++++++++++++++++++",
"+++++++++++++++++++++++   ooooooXXXXXX   +++++++++++++++++++++++",
"+++++++++++++++++++++++   ooooooXXXXXX   +++++++++++++++++++++++",
"+++++++++++++++++++++++   ooooooXXXXXX   +++++++++++++++++++++++",
"++++++++++++++++++++++++++   XXXXXX   ++++++++++++++++++++++++++",
"++++++++++++++++++++++++++   XXXXXX   ++++++++++++++++++++++++++",
"++++++++++++++++++++++++++   XXXXXX   ++++++++++++++++++++++++++",
"+++++++++++++++++++++++++++++      +++++++++++++++++++++++++++++",
"+++++++++++++++++++++++++++++      +++++++++++++++++++++++++++++",
"+++++++++++++++++++++++++++++      +++++++++++++++++++++++++++++",
"++++++++++++++++++++++++++++++++++++++++++++++++++++++++++++++++",
"++++++++++++++++++++++++++++++++++++++++++++++++++++++++++++++++",
"++++++++++++++++++++++++++++++++++++++++++++++++++++++++++++++++",
"++++++++++++++++++++++++++++++++++++++++++++++++++++++++++++++++",
"++++++++++++++++++++++++++++++++++++++++++++++++++++++++++++++++",
"++++++++++++++++++++++++++++++++++++++++++++++++++++++++++++++++",
"++++++++++++++++++++++++++++++++++++++++++++++++++++++++++++++++",
"++++++++++++++++++++++++++++++++++++++++++++++++++++++++++++++++",
"++++++++++++++++++++++++++++++++++++++++++++++++++++++++++++++++",
"++++++++++++++++++++++++++++++++++++++++++++++++++++++++++++++++",
"++++++++++++++++++++++++++++++++++++++++++++++++++++++++++++++++",
"++++++++++++++++++++++++++++++++++++++++++++++++++++++++++++++++",
"++++++++++++++++++++++++++++++++++++++++++++++++++++++++++++++++",
"++++++++++++++++++++++++++++++++++++++++++++++++++++++++++++++++"
};
