/* XPM */
static char *result[] = {
/* columns rows colors chars-per-pixel */
"64 64 6 1 ",
"  c black",
". c #F76A22",
"X c #F77622",
"o c #FEAE34",
"O c #FEE761",
"+ c None",
/* pixels */
"++++++++++++++++++++++++++++++++++++++++++++++++++++++++++++++++",
"++++++++++++++++++++++++++++++++++++++++++++++++++++++++++++++++",
"++++++++++++++++++++++++++++++++++++++++++++++++++++++++++++++++",
"++++++++++++++++++++++++++++++++++++++++++++++++++++++++++++++++",
"++++++++++++++++++++++++++++++++++++++++++++++++++++++++++++++++",
"++++++++++++++++++++++++++++++++++++++++++++++++++++++++++++++++",
"++++++++++++++++++++++++++++++++++++++++++++++++++++++++++++++++",
"++++++++++++++++++++++++++++++++++++++++++++++++++++++++++++++++",
"++++++++++++++++++++++++++++++++++++++++++++++++++++++++++++++++",
"++++++++++++++++++++++++++++++++++++++++++++++++++++++++++++++++",
"++++++++++++++++++++++++++++++++++++++++++++++++++++++++++++++++",
"++++++++++++++++++++++++++++++++++++++++++++++++++++++++++++++++",
"++++++++++++++++++++++++++++++++++++++++++++++++++++++++++++++++",
"++++++++++++++++++++++++++++++++++++++++++++++++++++++++++++++++",
"+++++++++++++++++++++++++               ++++++++++++++++++++++++",
"+++++++++++++++++++++++++               ++++++++++++++++++++++++",
"+++++++++++++++++++++++++               ++++++++++++++++++++++++",
"++++++++++++++++++++++   OOOOOOOOOOOOOOO   +++++++++++++++++++++",
"++++++++++++++++++++++   OOOOOOOOOOOOOOO   +++++++++++++++++++++",
"++++++++++++++++++++++   OOOOOOOOOOOOOOO   +++++++++++++++++++++",
"+++++++++++++++++++   OOOoooooooooooooooXXX   ++++++++++++++++++",
"+++++++++++++++++++   OOOoooooooooooooooXXX   ++++++++++++++++++",
"+++++++++++++++++++   OOOoooooooooooooooXXX   ++++++++++++++++++",
"++++++++++++++++   OOOooooooOOOOOOOOOooooooXXX   +++++++++++++++",
"++++++++++++++++   OOOooooooOOOOOOOOOooooooXXX   +++++++++++++++",
"++++++++++++++++   OOOooooooOOOOOOOOOooooooXXX   +++++++++++++++",
"++++++++++++++++   OOOoooOOOooooooooo...oooXXX   +++++++++++++++",
"++++++++++++++++   OOOoooOOOooooooooo...oooXXX   +++++++++++++++",
"++++++++++++++++   OOOoooOOOooooooooo...oooXXX   +++++++++++++++",
"++++++++++++++++   OOOoooOOOooooooooo...oooXXX   +++++++++++++++",
"++++++++++++++++   OOOoooOOOooooooooo...oooXXX   +++++++++++++++",
"++++++++++++++++   OOOoooOOOooooooooo...oooXXX   +++++++++++++++",
"++++++++++++++++   OOOoooOOOooooooooo...oooXXX   +++++++++++++++",
"++++++++++++++++   OOOoooOOOooooooooo...oooXXX   +++++++++++++++",
"++++++++++++++++   OOOoooOOOooooooooo...oooXXX   +++++++++++++++",
"++++++++++++++++   OOOoooOOOooooooooo...oooXXX   +++++++++++++++",
"++++++++++++++++   OOOoooOOOooooooooo...oooXXX   +++++++++++++++",
"++++++++++++++++   OOOoooOOOooooooooo...oooXXX   +++++++++++++++",
"++++++++++++++++   OOOoooooo.........ooooooXXX   +++++++++++++++",
"++++++++++++++++   OOOoooooo.........ooooooXXX   +++++++++++++++",
"++++++++++++++++   OOOoooooo.........ooooooXXX   +++++++++++++++",
"+++++++++++++++++++   OOOoooooooooooooooXXX   ++++++++++++++++++",
"+++++++++++++++++++   OOOoooooooooooooooXXX   ++++++++++++++++++",
"+++++++++++++++++++   OOOoooooooooooooooXXX   ++++++++++++++++++",
"++++++++++++++++++++++   XXXXXXXXXXXXXXX   +++++++++++++++++++++",
"++++++++++++++++++++++   XXXXXXXXXXXXXXX   +++++++++++++++++++++",
"++++++++++++++++++++++   XXXXXXXXXXXXXXX   +++++++++++++++++++++",
"+++++++++++++++++++++++++               ++++++++++++++++++++++++",
"+++++++++++++++++++++++++               ++++++++++++++++++++++++",
"+++++++++++++++++++++++++               ++++++++++++++++++++++++",
"++++++++++++++++++++++++++++++++++++++++++++++++++++++++++++++++",
"++++++++++++++++++++++++++++++++++++++++++++++++++++++++++++++++",
"++++++++++++++++++++++++++++++++++++++++++++++++++++++++++++++++",
"++++++++++++++++++++++++++++++++++++++++++++++++++++++++++++++++",
"++++++++++++++++++++++++++++++++++++++++++++++++++++++++++++++++",
"++++++++++++++++++++++++++++++++++++++++++++++++++++++++++++++++",
"++++++++++++++++++++++++++++++++++++++++++++++++++++++++++++++++",
"++++++++++++++++++++++++++++++++++++++++++++++++++++++++++++++++",
"++++++++++++++++++++++++++++++++++++++++++++++++++++++++++++++++",
"++++++++++++++++++++++++++++++++++++++++++++++++++++++++++++++++",
"++++++++++++++++++++++++++++++++++++++++++++++++++++++++++++++++",
"++++++++++++++++++++++++++++++++++++++++++++++++++++++++++++++++",
"++++++++++++++++++++++++++++++++++++++++++++++++++++++++++++++++",
"++++++++++++++++++++++++++++++++++++++++++++++++++++++++++++++++"
};
