/* XPM */
static char *result[] = {
/* columns rows colors chars-per-pixel */
"64 64 6 1 ",
"  c black",
". c #F76A22",
"X c #F77622",
"o c #FEAE34",
"O c #FEE761",
"+ c None",
/* pixels */
"++++++++++++++++++++++++++++++++++++++++++++++++++++++++++++++++",
"++++++++++++++++++++++++++++++++++++++++++++++++++++++++++++++++",
"++++++++++++++++++++++++++++++++++++++++++++++++++++++++++++++++",
"++++++++++++++++++++++++++++++++++++++++++++++++++++++++++++++++",
"++++++++++++++++++++++++++++++++++++++++++++++++++++++++++++++++",
"++++++++++++++++++++++++++++++++++++++++++++++++++++++++++++++++",
"++++++++++++++++++++++++++++++++++++++++++++++++++++++++++++++++",
"++++++++++++++++++++++++++++++++++++++++++++++++++++++++++++++++",
"++++++++++++++++++++++++++++++++++++++++++++++++++++++++++++++++",
"++++++++++++++++++++++++++++++++++++++++++++++++++++++++++++++++",
"++++++++++++++++++++++++++++++++++++++++++++++++++++++++++++++++",
"++++++++++++++++++++++++++++++++++++++++++++++++++++++++++++++++",
"++++++++++++++++++++++++++++++++++++++++++++++++++++++++++++++++",
"++++++++++++++++++++++++++++++++++++++++++++++++++++++++++++++++",
"+++++++++++++++++++++++++++         ++++++++++++++++++++++++++++",
"+++++++++++++++++++++++++++         ++++++++++++++++++++++++++++",
"+++++++++++++++++++++++++++         ++++++++++++++++++++++++++++",
"++++++++++++++++++++++++   XXXXXXOOO   +++++++++++++++++++++++++",
"++++++++++++++++++++++++   XXXXXXOOO   +++++++++++++++++++++++++",
"++++++++++++++++++++++++   XXXXXXOOO   +++++++++++++++++++++++++",
"+++++++++++++++++++++   XXXXXXooooooOOO   ++++++++++++++++++++++",
"+++++++++++++++++++++   XXXXXXooooooOOO   ++++++++++++++++++++++",
"+++++++++++++++++++++   XXXXXXooooooOOO   ++++++++++++++++++++++",
"++++++++++++++++++   XXXXXXoooooo...oooOOO   +++++++++++++++++++",
"++++++++++++++++++   XXXXXXoooooo...oooOOO   +++++++++++++++++++",
"++++++++++++++++++   XXXXXXoooooo...oooOOO   +++++++++++++++++++",
"++++++++++++++++++   XXXXXXooo...OOOoooOOO   +++++++++++++++++++",
"++++++++++++++++++   XXXXXXooo...OOOoooOOO   +++++++++++++++++++",
"++++++++++++++++++   XXXXXXooo...OOOoooOOO   +++++++++++++++++++",
"++++++++++++++++++   XXXXXXooo...OOOoooOOO   +++++++++++++++++++",
"++++++++++++++++++   XXXXXXooo...OOOoooOOO   +++++++++++++++++++",
"++++++++++++++++++   XXXXXXooo...OOOoooOOO   +++++++++++++++++++",
"++++++++++++++++++   XXXXXXooo...OOOoooOOO   +++++++++++++++++++",
"++++++++++++++++++   XXXXXXooo...OOOoooOOO   +++++++++++++++++++",
"++++++++++++++++++   XXXXXXooo...OOOoooOOO   +++++++++++++++++++",
"++++++++++++++++++   XXXXXXooo...OOOoooOOO   +++++++++++++++++++",
"++++++++++++++++++   XXXXXXooo...OOOoooOOO   +++++++++++++++++++",
"++++++++++++++++++   XXXXXXooo...OOOoooOOO   +++++++++++++++++++",
"++++++++++++++++++   XXXXXXoooooo...oooOOO   +++++++++++++++++++",
"++++++++++++++++++   XXXXXXoooooo...oooOOO   +++++++++++++++++++",
"++++++++++++++++++   XXXXXXoooooo...oooOOO   +++++++++++++++++++",
"+++++++++++++++++++++   XXXXXXooooooOOO   ++++++++++++++++++++++",
"+++++++++++++++++++++   XXXXXXooooooOOO   ++++++++++++++++++++++",
"+++++++++++++++++++++   XXXXXXooooooOOO   ++++++++++++++++++++++",
"++++++++++++++++++++++++   XXXXXXXXX   +++++++++++++++++++++++++",
"++++++++++++++++++++++++   XXXXXXXXX   +++++++++++++++++++++++++",
"++++++++++++++++++++++++   XXXXXXXXX   +++++++++++++++++++++++++",
"+++++++++++++++++++++++++++         ++++++++++++++++++++++++++++",
"+++++++++++++++++++++++++++         ++++++++++++++++++++++++++++",
"+++++++++++++++++++++++++++         ++++++++++++++++++++++++++++",
"++++++++++++++++++++++++++++++++++++++++++++++++++++++++++++++++",
"++++++++++++++++++++++++++++++++++++++++++++++++++++++++++++++++",
"++++++++++++++++++++++++++++++++++++++++++++++++++++++++++++++++",
"++++++++++++++++++++++++++++++++++++++++++++++++++++++++++++++++",
"++++++++++++++++++++++++++++++++++++++++++++++++++++++++++++++++",
"++++++++++++++++++++++++++++++++++++++++++++++++++++++++++++++++",
"++++++++++++++++++++++++++++++++++++++++++++++++++++++++++++++++",
"++++++++++++++++++++++++++++++++++++++++++++++++++++++++++++++++",
"++++++++++++++++++++++++++++++++++++++++++++++++++++++++++++++++",
"++++++++++++++++++++++++++++++++++++++++++++++++++++++++++++++++",
"++++++++++++++++++++++++++++++++++++++++++++++++++++++++++++++++",
"++++++++++++++++++++++++++++++++++++++++++++++++++++++++++++++++",
"++++++++++++++++++++++++++++++++++++++++++++++++++++++++++++++++",
"++++++++++++++++++++++++++++++++++++++++++++++++++++++++++++++++"
};
