/* XPM */
static char *result[] = {
/* columns rows colors chars-per-pixel */
"64 64 8 1 ",
"  c #223038",
". c #437DA0",
"X c #97258D",
"o c #4D92BC",
"O c #D8B78F",
"+ c #FFD7A8",
"@ c white",
"# c None",
/* pixels */
"################################################################",
"################################################################",
"################################################################",
"################################################################",
"################################################################",
"################################################################",
"###############                                 ################",
"###############                                 ################",
"###############                                 ################",
"############   oooooooooooooooooo   .........      #############",
"############   oooooooooooooooooo   .........      #############",
"############   oooooooooooooooooo   .........      #############",
"#########   oooooooooooooooooo...@@@   @@@...   XXX   ##########",
"#########   oooooooooooooooooo...@@@   @@@...   XXX   ##########",
"#########   oooooooooooooooooo...@@@   @@@...   XXX   ##########",
"#########      ooooooooo   ooo...@@@   @@@...   XXX   ##########",
"#########      ooooooooo   ooo...@@@   @@@...   XXX   ##########",
"#########      ooooooooo   ooo...@@@   @@@...   XXX   ##########",
"#########   oooooooooooooooooo...@@@   @@@...         ##########",
"#########   oooooooooooooooooo...@@@   @@@...         ##########",
"#########   oooooooooooooooooo...@@@   @@@...         ##########",
"#########   oooooooooooooooooo............   XXX   #############",
"#########   oooooooooooooooooo............   XXX   #############",
"#########   oooooooooooooooooo............   XXX   #############",
"#########   oooooooooooooooooo............   XXX   #############",
"#########   oooooooooooooooooo............   XXX   #############",
"#########   oooooooooooooooooo............   XXX   #############",
"#########               ooo...............         #############",
"#########               ooo...............         #############",
"#########               ooo...............         #############",
"##################   oooooooooooo......      ###################",
"##################   oooooooooooo......      ###################",
"##################   oooooooooooo......      ###################",
"##################   ++++++++++++OOO...   ######################",
"##################   ++++++++++++OOO...   ######################",
"##################   ++++++++++++OOO...   ######################",
"##################   ++++++++++++OOO...         ################",
"##################   ++++++++++++OOO...         ################",
"##################   ++++++++++++OOO...         ################",
"##################   ++++++++++++OOO...oooooo   ################",
"##################   ++++++++++++OOO...oooooo   ################",
"##################   ++++++++++++OOO...oooooo   ################",
"##################   oooOOOOOOooo.........      ################",
"##################   oooOOOOOOooo.........      ################",
"##################   oooOOOOOOooo.........      ################",
"##################   ooooooooooooooo...      ###################",
"##################   ooooooooooooooo...      ###################",
"##################   ooooooooooooooo...      ###################",
"##################   ooo...      ooo...   ######################",
"##################   ooo...      ooo...   ######################",
"##################   ooo...      ooo...   ######################",
"#####################   ...   ###   ...   ######################",
"#####################   ...   ###   ...   ######################",
"#####################   ...   ###   ...   ######################",
"########################      ######      ######################",
"########################      ######      ######################",
"########################      ######      ######################",
"################################################################",
"################################################################",
"################################################################",
"################################################################",
"################################################################",
"################################################################",
"################################################################"
};
