/* XPM */
static char *_cd7d82902034df2b1b431bcff90eefceS8jTIZZPiEeFzWE[] = {
/* columns rows colors chars-per-pixel */
"64 64 8 1 ",
"  c None",
". c #223038",
"X c #437DA0",
"o c #97258D",
"O c #4D92BC",
"+ c #D8B78F",
"@ c #FFD7A8",
"# c white",
/* pixels */
"                                                                ",
"                                                                ",
"                                                                ",
"                                                                ",
"                                                                ",
"               .................................                ",
"               .................................                ",
"               .................................                ",
"            ......XXXXXXXXX...OOOOOOOOOOOOOOOOOO...             ",
"            ......XXXXXXXXX...OOOOOOOOOOOOOOOOOO...             ",
"            ......XXXXXXXXX...OOOOOOOOOOOOOOOOOO...             ",
"         ...ooo...XXX###...###XXXOOOOOOOOOOOOOOOOOO...          ",
"         ...ooo...XXX###...###XXXOOOOOOOOOOOOOOOOOO...          ",
"         ...ooo...XXX###...###XXXOOOOOOOOOOOOOOOOOO...          ",
"         ...ooo...XXX###...###XXXOOO...OOOOOOOOO......          ",
"         ...ooo...XXX###...###XXXOOO...OOOOOOOOO......          ",
"         ...ooo...XXX###...###XXXOOO...OOOOOOOOO......          ",
"         .........XXX###...###XXXOOOOOOOOOOOOOOOOOO...          ",
"         .........XXX###...###XXXOOOOOOOOOOOOOOOOOO...          ",
"         .........XXX###...###XXXOOOOOOOOOOOOOOOOOO...          ",
"            ...ooo...XXXXXXXXXXXXOOOOOOOOOOOOOOOOOO...          ",
"            ...ooo...XXXXXXXXXXXXOOOOOOOOOOOOOOOOOO...          ",
"            ...ooo...XXXXXXXXXXXXOOOOOOOOOOOOOOOOOO...          ",
"            ...ooo...XXXXXXXXXXXXOOOOOOOOOOOOOOOOOO...          ",
"            ...ooo...XXXXXXXXXXXXOOOOOOOOOOOOOOOOOO...          ",
"            ...ooo...XXXXXXXXXXXXOOOOOOOOOOOOOOOOOO...          ",
"            .........XXXXXXXXXXXXXXXOOO...............          ",
"            .........XXXXXXXXXXXXXXXOOO...............          ",
"            .........XXXXXXXXXXXXXXXOOO...............          ",
"                  ......XXXXXXOOOOOOOOOOOO...                   ",
"                  ......XXXXXXOOOOOOOOOOOO...                   ",
"                  ......XXXXXXOOOOOOOOOOOO...                   ",
"                     ...XXX+++@@@@@@@@@@@@...                   ",
"                     ...XXX+++@@@@@@@@@@@@...                   ",
"                     ...XXX+++@@@@@@@@@@@@...                   ",
"               .........XXX+++@@@@@@@@@@@@...                   ",
"               .........XXX+++@@@@@@@@@@@@...                   ",
"               .........XXX+++@@@@@@@@@@@@...                   ",
"               ...OOOOOOXXX+++@@@@@@@@@@@@...                   ",
"               ...OOOOOOXXX+++@@@@@@@@@@@@...                   ",
"               ...OOOOOOXXX+++@@@@@@@@@@@@...                   ",
"               ......XXXXXXXXXOOO++++++OOO...                   ",
"               ......XXXXXXXXXOOO++++++OOO...                   ",
"               ......XXXXXXXXXOOO++++++OOO...                   ",
"                  ......XXXOOOOOOOOOOOOOOO...                   ",
"                  ......XXXOOOOOOOOOOOOOOO...                   ",
"                  ......XXXOOOOOOOOOOOOOOO...                   ",
"                     ...XXXOOO......XXXOOO...                   ",
"                     ...XXXOOO......XXXOOO...                   ",
"                     ...XXXOOO......XXXOOO...                   ",
"                     ...XXX...   ...XXX...                      ",
"                     ...XXX...   ...XXX...                      ",
"                     ...XXX...   ...XXX...                      ",
"                     ......      ......                         ",
"                     ......      ......                         ",
"                     ......      ......                         ",
"                                                                ",
"                                                                ",
"                                                                ",
"                                                                ",
"                                                                ",
"                                                                ",
"                                                                ",
"                                                                "
};
