/* XPM */
static char *result[] = {
/* columns rows colors chars-per-pixel */
"96 32 5 1 ",
"  c #19374B",
". c #E5BE27",
"X c #1F6898",
"o c #329BE1",
"O c None",
/* pixels */
"OOOOOOOOOOOOOOOOOOOOOOOOOOOOOOOOOOOOOOOOOOOOOOOOOOOOOOOOOOOOOOOOOOOOOOOOOOOOOOOOOOOOOOOOOOOOOOOO",
"OOOOOOOOOOOOOOOOOOOOOOOOOOOOOOOOOOOOOOOOOOOOOOOOOOOOOOOOOOOOOOOOOOOOOOOOOOOOOOOOOOOOOOOOOOOOOOOO",
"OOOOOOOOOOOOOOOOOOOOOOOOOOOOOOOOOOOOOOOOOOOOOOOOOOOOOOOOOOOOOOOOOOOOOOOOOOOOOOOOOOOOOOOOOOOOOOOO",
"OOOOOOOOOOOOOOOOOOOOOOOOOOOOOOOOOOOOOOOOOOOOOOOOOOOOOOOOOOOOOOOOOOOOOOOOOOOOOOOOOOOOOOOOOOOOOOOO",
"OOOOOOOOOOOO XXOOOOOOOOOOOOOOOOOOOOOOOOOOOOOOOOOOOOOOOOOOOOOOOOOOOOOOOOOOOOOOOOOOXX OOOOOOOOOOOO",
"OOOOOOOOOOO oXXooooooooooooooooooooooooooooooooooooooooooooooooooooooooooooooooooXXo OOOOOOOOOOO",
"OOOOOOOOOO XXooooooooooooooooooooooooooooooooooooooooooooooooooooooooooooooooooooooXX OOOOOOOOOO",
"OOOOOOOOO oXXo..oooooo..oooo..oooo..oooo..ooo..oooooooo..o..o...oooo..ooo..o..oooooXXo OOOOOOOOO",
"OOOOOOOO XXooo...oooo...oo......oo..oooo..ooo..oooooooo..o..o.....oo..ooo..o..oooooooXX OOOOOOOO",
"OOOOOOO oXXoooo...oo...ooo..oo..oo..oooo..ooo..oooooooo..o..o..o..oo..ooo..o..oooooooXXo OOOOOOO",
"OOOOOO XXooooooo......ooo..oooo..o..oooo..ooo..oooooooo..o..o..o..oo..ooo..o..oooooooooXX OOOOOO",
"OOOOO oXXoooooooo....oooo..oooo..o..oooo..oooo..oooooo..oo..o..o...o..ooo..o..oooooooooXXo OOOOO",
"OOOO XXooooooooooo..ooooo..oooo..o..oooo..oooo..oo..oo..oo..o..oo..o..ooo..o..oooooooooooXX OOOO",
"OOO oXXooooooooooo..ooooo..oooo..oo..oo..ooooo..oo..oo..oo..o..oo..o..oooooooooooooooooooXXo OOO",
"OO XXooooooooooooo..oooooo..oo..ooo..oo..ooooo..o....o..oo..o..oo..o..oooooooooooooooooooooXX OO",
"O oXXooooooooooooo..oooooo......oooo....ooooooo.......oooo..o..ooo...oooo..o..oooooooooooooXXo O",
"O oXXooooooooooooo..oooooooo..oooooo....ooooooo..ooo..oooo..o..ooo...oooo..o..oooooooooooooXXo O",
"OO XXooooooooooooooooooooooooooooooooooooooooooooooooooooooooooooooooooooooooooooooooooooooXX OO",
"OOO oXXooooooooooooooooooooooooooooooooooooooooooooooooooooooooooooooooooooooooooooooooooXXo OOO",
"OOOO XXooooooooooooooooooooooooooooooooooooooooooooooooooooooooooooooooooooooooooooooooooXX OOOO",
"OOOOO oXXooooooooooooooooooooooooooooooooooooooooooooooooooooooooooooooooooooooooooooooXXo OOOOO",
"OOOOOO XXooooooooooooooooooooooooooooooooooooooooooooooooooooooooooooooooooooooooooooooXX OOOOOO",
"OOOOOOO oXXooooooooooooooooooooooooooooooooooooooooooooooooooooooooooooooooooooooooooXXo OOOOOOO",
"OOOOOOOO XXooooooooooooooooooooooooooooooooooooooooooooooooooooooooooooooooooooooooooXX OOOOOOOO",
"OOOOOOOOO oXXooooooooooooooooooooooooooooooooooooooooooooooooooooooooooooooooooooooXXo OOOOOOOOO",
"OOOOOOOOOO XXooooooooooooooooooooooooooooooooooooooooooooooooooooooooooooooooooooooXX OOOOOOOOOO",
"OOOOOOOOOOO oXXooooooooooooooooooooooooooooooooooooooooooooooooooooooooooooooooooXXo OOOOOOOOOOO",
"OOOOOOOOOOOO XXOOOOOOOOOOOOOOOOOOOOOOOOOOOOOOOOOOOOOOOOOOOOOOOOOOOOOOOOOOOOOOOOOOXX OOOOOOOOOOOO",
"OOOOOOOOOOOOOOOOOOOOOOOOOOOOOOOOOOOOOOOOOOOOOOOOOOOOOOOOOOOOOOOOOOOOOOOOOOOOOOOOOOOOOOOOOOOOOOOO",
"OOOOOOOOOOOOOOOOOOOOOOOOOOOOOOOOOOOOOOOOOOOOOOOOOOOOOOOOOOOOOOOOOOOOOOOOOOOOOOOOOOOOOOOOOOOOOOOO",
"OOOOOOOOOOOOOOOOOOOOOOOOOOOOOOOOOOOOOOOOOOOOOOOOOOOOOOOOOOOOOOOOOOOOOOOOOOOOOOOOOOOOOOOOOOOOOOOO",
"OOOOOOOOOOOOOOOOOOOOOOOOOOOOOOOOOOOOOOOOOOOOOOOOOOOOOOOOOOOOOOOOOOOOOOOOOOOOOOOOOOOOOOOOOOOOOOOO"
};
