/* XPM */
static char *result[] = {
/* columns rows colors chars-per-pixel */
"64 64 6 1 ",
"  c black",
". c #F76A22",
"X c #F77622",
"o c #FEAE34",
"O c #FEE761",
"+ c None",
/* pixels */
"++++++++++++++++++++++++++++++++++++++++++++++++++++++++++++++++",
"++++++++++++++++++++++++++++++++++++++++++++++++++++++++++++++++",
"++++++++++++++++++++++++++++++++++++++++++++++++++++++++++++++++",
"++++++++++++++++++++++++++++++++++++++++++++++++++++++++++++++++",
"++++++++++++++++++++++++++++++++++++++++++++++++++++++++++++++++",
"++++++++++++++++++++++++++++++++++++++++++++++++++++++++++++++++",
"++++++++++++++++++++++++++++++++++++++++++++++++++++++++++++++++",
"++++++++++++++++++++++++++++++++++++++++++++++++++++++++++++++++",
"++++++++++++++++++++++++++++++++++++++++++++++++++++++++++++++++",
"++++++++++++++++++++++++++++++++++++++++++++++++++++++++++++++++",
"++++++++++++++++++++++++++++++++++++++++++++++++++++++++++++++++",
"++++++++++++++++++++++++++++++++++++++++++++++++++++++++++++++++",
"++++++++++++++++++++++++++++++++++++++++++++++++++++++++++++++++",
"++++++++++++++++++++++++++++++++++++++++++++++++++++++++++++++++",
"++++++++++++++++++++++++               +++++++++++++++++++++++++",
"++++++++++++++++++++++++               +++++++++++++++++++++++++",
"++++++++++++++++++++++++               +++++++++++++++++++++++++",
"+++++++++++++++++++++   OOOOOOOOOOOOOOO   ++++++++++++++++++++++",
"+++++++++++++++++++++   OOOOOOOOOOOOOOO   ++++++++++++++++++++++",
"+++++++++++++++++++++   OOOOOOOOOOOOOOO   ++++++++++++++++++++++",
"++++++++++++++++++   XXXoooooooooooooooOOO   +++++++++++++++++++",
"++++++++++++++++++   XXXoooooooooooooooOOO   +++++++++++++++++++",
"++++++++++++++++++   XXXoooooooooooooooOOO   +++++++++++++++++++",
"+++++++++++++++   XXXooooooOOOOOOOOOooooooOOO   ++++++++++++++++",
"+++++++++++++++   XXXooooooOOOOOOOOOooooooOOO   ++++++++++++++++",
"+++++++++++++++   XXXooooooOOOOOOOOOooooooOOO   ++++++++++++++++",
"+++++++++++++++   XXXooo...oooooooooOOOoooOOO   ++++++++++++++++",
"+++++++++++++++   XXXooo...oooooooooOOOoooOOO   ++++++++++++++++",
"+++++++++++++++   XXXooo...oooooooooOOOoooOOO   ++++++++++++++++",
"+++++++++++++++   XXXooo...oooooooooOOOoooOOO   ++++++++++++++++",
"+++++++++++++++   XXXooo...oooooooooOOOoooOOO   ++++++++++++++++",
"+++++++++++++++   XXXooo...oooooooooOOOoooOOO   ++++++++++++++++",
"+++++++++++++++   XXXooo...oooooooooOOOoooOOO   ++++++++++++++++",
"+++++++++++++++   XXXooo...oooooooooOOOoooOOO   ++++++++++++++++",
"+++++++++++++++   XXXooo...oooooooooOOOoooOOO   ++++++++++++++++",
"+++++++++++++++   XXXooo...oooooooooOOOoooOOO   ++++++++++++++++",
"+++++++++++++++   XXXooo...oooooooooOOOoooOOO   ++++++++++++++++",
"+++++++++++++++   XXXooo...oooooooooOOOoooOOO   ++++++++++++++++",
"+++++++++++++++   XXXoooooo.........ooooooOOO   ++++++++++++++++",
"+++++++++++++++   XXXoooooo.........ooooooOOO   ++++++++++++++++",
"+++++++++++++++   XXXoooooo.........ooooooOOO   ++++++++++++++++",
"++++++++++++++++++   XXXoooooooooooooooOOO   +++++++++++++++++++",
"++++++++++++++++++   XXXoooooooooooooooOOO   +++++++++++++++++++",
"++++++++++++++++++   XXXoooooooooooooooOOO   +++++++++++++++++++",
"+++++++++++++++++++++   XXXXXXXXXXXXXXX   ++++++++++++++++++++++",
"+++++++++++++++++++++   XXXXXXXXXXXXXXX   ++++++++++++++++++++++",
"+++++++++++++++++++++   XXXXXXXXXXXXXXX   ++++++++++++++++++++++",
"++++++++++++++++++++++++               +++++++++++++++++++++++++",
"++++++++++++++++++++++++               +++++++++++++++++++++++++",
"++++++++++++++++++++++++               +++++++++++++++++++++++++",
"++++++++++++++++++++++++++++++++++++++++++++++++++++++++++++++++",
"++++++++++++++++++++++++++++++++++++++++++++++++++++++++++++++++",
"++++++++++++++++++++++++++++++++++++++++++++++++++++++++++++++++",
"++++++++++++++++++++++++++++++++++++++++++++++++++++++++++++++++",
"++++++++++++++++++++++++++++++++++++++++++++++++++++++++++++++++",
"++++++++++++++++++++++++++++++++++++++++++++++++++++++++++++++++",
"++++++++++++++++++++++++++++++++++++++++++++++++++++++++++++++++",
"++++++++++++++++++++++++++++++++++++++++++++++++++++++++++++++++",
"++++++++++++++++++++++++++++++++++++++++++++++++++++++++++++++++",
"++++++++++++++++++++++++++++++++++++++++++++++++++++++++++++++++",
"++++++++++++++++++++++++++++++++++++++++++++++++++++++++++++++++",
"++++++++++++++++++++++++++++++++++++++++++++++++++++++++++++++++",
"++++++++++++++++++++++++++++++++++++++++++++++++++++++++++++++++",
"++++++++++++++++++++++++++++++++++++++++++++++++++++++++++++++++"
};
