/* XPM */
static char *result[] = {
/* columns rows colors chars-per-pixel */
"64 64 6 1 ",
"  c black",
". c #F76A22",
"X c #F77622",
"o c #FEAE34",
"O c #FEE761",
"+ c None",
/* pixels */
"++++++++++++++++++++++++++++++++++++++++++++++++++++++++++++++++",
"++++++++++++++++++++++++++++++++++++++++++++++++++++++++++++++++",
"++++++++++++++++++++++++++++++++++++++++++++++++++++++++++++++++",
"++++++++++++++++++++++++++++++++++++++++++++++++++++++++++++++++",
"++++++++++++++++++++++++++++++++++++++++++++++++++++++++++++++++",
"++++++++++++++++++++++++++++++++++++++++++++++++++++++++++++++++",
"++++++++++++++++++++++++++++++++++++++++++++++++++++++++++++++++",
"++++++++++++++++++++++++++++++++++++++++++++++++++++++++++++++++",
"++++++++++++++++++++++++++++++++++++++++++++++++++++++++++++++++",
"++++++++++++++++++++++++++++++++++++++++++++++++++++++++++++++++",
"++++++++++++++++++++++++++++++++++++++++++++++++++++++++++++++++",
"++++++++++++++++++++++++++++++++++++++++++++++++++++++++++++++++",
"++++++++++++++++++++++++++++++++++++++++++++++++++++++++++++++++",
"++++++++++++++++++++++++++++++++++++++++++++++++++++++++++++++++",
"+++++++++++++++++++++++++++         ++++++++++++++++++++++++++++",
"+++++++++++++++++++++++++++         ++++++++++++++++++++++++++++",
"+++++++++++++++++++++++++++         ++++++++++++++++++++++++++++",
"++++++++++++++++++++++++   OOOXXXXXX   +++++++++++++++++++++++++",
"++++++++++++++++++++++++   OOOXXXXXX   +++++++++++++++++++++++++",
"++++++++++++++++++++++++   OOOXXXXXX   +++++++++++++++++++++++++",
"+++++++++++++++++++++   OOOooooooXXXXXX   ++++++++++++++++++++++",
"+++++++++++++++++++++   OOOooooooXXXXXX   ++++++++++++++++++++++",
"+++++++++++++++++++++   OOOooooooXXXXXX   ++++++++++++++++++++++",
"++++++++++++++++++   OOOooo...ooooooXXXXXX   +++++++++++++++++++",
"++++++++++++++++++   OOOooo...ooooooXXXXXX   +++++++++++++++++++",
"++++++++++++++++++   OOOooo...ooooooXXXXXX   +++++++++++++++++++",
"++++++++++++++++++   OOOoooOOO...oooXXXXXX   +++++++++++++++++++",
"++++++++++++++++++   OOOoooOOO...oooXXXXXX   +++++++++++++++++++",
"++++++++++++++++++   OOOoooOOO...oooXXXXXX   +++++++++++++++++++",
"++++++++++++++++++   OOOoooOOO...oooXXXXXX   +++++++++++++++++++",
"++++++++++++++++++   OOOoooOOO...oooXXXXXX   +++++++++++++++++++",
"++++++++++++++++++   OOOoooOOO...oooXXXXXX   +++++++++++++++++++",
"++++++++++++++++++   OOOoooOOO...oooXXXXXX   +++++++++++++++++++",
"++++++++++++++++++   OOOoooOOO...oooXXXXXX   +++++++++++++++++++",
"++++++++++++++++++   OOOoooOOO...oooXXXXXX   +++++++++++++++++++",
"++++++++++++++++++   OOOoooOOO...oooXXXXXX   +++++++++++++++++++",
"++++++++++++++++++   OOOoooOOO...oooXXXXXX   +++++++++++++++++++",
"++++++++++++++++++   OOOoooOOO...oooXXXXXX   +++++++++++++++++++",
"++++++++++++++++++   OOOooo...ooooooXXXXXX   +++++++++++++++++++",
"++++++++++++++++++   OOOooo...ooooooXXXXXX   +++++++++++++++++++",
"++++++++++++++++++   OOOooo...ooooooXXXXXX   +++++++++++++++++++",
"+++++++++++++++++++++   OOOooooooXXXXXX   ++++++++++++++++++++++",
"+++++++++++++++++++++   OOOooooooXXXXXX   ++++++++++++++++++++++",
"+++++++++++++++++++++   OOOooooooXXXXXX   ++++++++++++++++++++++",
"++++++++++++++++++++++++   XXXXXXXXX   +++++++++++++++++++++++++",
"++++++++++++++++++++++++   XXXXXXXXX   +++++++++++++++++++++++++",
"++++++++++++++++++++++++   XXXXXXXXX   +++++++++++++++++++++++++",
"+++++++++++++++++++++++++++         ++++++++++++++++++++++++++++",
"+++++++++++++++++++++++++++         ++++++++++++++++++++++++++++",
"+++++++++++++++++++++++++++         ++++++++++++++++++++++++++++",
"++++++++++++++++++++++++++++++++++++++++++++++++++++++++++++++++",
"++++++++++++++++++++++++++++++++++++++++++++++++++++++++++++++++",
"++++++++++++++++++++++++++++++++++++++++++++++++++++++++++++++++",
"++++++++++++++++++++++++++++++++++++++++++++++++++++++++++++++++",
"++++++++++++++++++++++++++++++++++++++++++++++++++++++++++++++++",
"++++++++++++++++++++++++++++++++++++++++++++++++++++++++++++++++",
"++++++++++++++++++++++++++++++++++++++++++++++++++++++++++++++++",
"++++++++++++++++++++++++++++++++++++++++++++++++++++++++++++++++",
"++++++++++++++++++++++++++++++++++++++++++++++++++++++++++++++++",
"++++++++++++++++++++++++++++++++++++++++++++++++++++++++++++++++",
"++++++++++++++++++++++++++++++++++++++++++++++++++++++++++++++++",
"++++++++++++++++++++++++++++++++++++++++++++++++++++++++++++++++",
"++++++++++++++++++++++++++++++++++++++++++++++++++++++++++++++++",
"++++++++++++++++++++++++++++++++++++++++++++++++++++++++++++++++"
};
