/* XPM */
static char *result[] = {
/* columns rows colors chars-per-pixel */
"64 64 6 1 ",
"  c black",
". c #F76A22",
"X c #F77622",
"o c #FEAE34",
"O c #FEE761",
"+ c None",
/* pixels */
"++++++++++++++++++++++++++++++++++++++++++++++++++++++++++++++++",
"++++++++++++++++++++++++++++++++++++++++++++++++++++++++++++++++",
"++++++++++++++++++++++++++++++++++++++++++++++++++++++++++++++++",
"++++++++++++++++++++++++++++++++++++++++++++++++++++++++++++++++",
"++++++++++++++++++++++++++++++++++++++++++++++++++++++++++++++++",
"++++++++++++++++++++++++++++++++++++++++++++++++++++++++++++++++",
"++++++++++++++++++++++++++++++++++++++++++++++++++++++++++++++++",
"++++++++++++++++++++++++++++++++++++++++++++++++++++++++++++++++",
"++++++++++++++++++++++++++++++++++++++++++++++++++++++++++++++++",
"++++++++++++++++++++++++++++++++++++++++++++++++++++++++++++++++",
"++++++++++++++++++++++++++++++++++++++++++++++++++++++++++++++++",
"++++++++++++++++++++++++++++++++++++++++++++++++++++++++++++++++",
"++++++++++++++++++++++++++++++++++++++++++++++++++++++++++++++++",
"++++++++++++++++++++++++++++++++++++++++++++++++++++++++++++++++",
"++++++++++++++++++++++++++            ++++++++++++++++++++++++++",
"++++++++++++++++++++++++++            ++++++++++++++++++++++++++",
"++++++++++++++++++++++++++            ++++++++++++++++++++++++++",
"+++++++++++++++++++++++   OOOOOOXXXXXX   +++++++++++++++++++++++",
"+++++++++++++++++++++++   OOOOOOXXXXXX   +++++++++++++++++++++++",
"+++++++++++++++++++++++   OOOOOOXXXXXX   +++++++++++++++++++++++",
"++++++++++++++++++++   OOOoooooooooXXXXXX   ++++++++++++++++++++",
"++++++++++++++++++++   OOOoooooooooXXXXXX   ++++++++++++++++++++",
"++++++++++++++++++++   OOOoooooooooXXXXXX   ++++++++++++++++++++",
"+++++++++++++++++   OOOooooooOOOooooooXXXXXX   +++++++++++++++++",
"+++++++++++++++++   OOOooooooOOOooooooXXXXXX   +++++++++++++++++",
"+++++++++++++++++   OOOooooooOOOooooooXXXXXX   +++++++++++++++++",
"+++++++++++++++++   OOOoooOOOooo...oooXXXXXX   +++++++++++++++++",
"+++++++++++++++++   OOOoooOOOooo...oooXXXXXX   +++++++++++++++++",
"+++++++++++++++++   OOOoooOOOooo...oooXXXXXX   +++++++++++++++++",
"+++++++++++++++++   OOOoooOOOooo...oooXXXXXX   +++++++++++++++++",
"+++++++++++++++++   OOOoooOOOooo...oooXXXXXX   +++++++++++++++++",
"+++++++++++++++++   OOOoooOOOooo...oooXXXXXX   +++++++++++++++++",
"+++++++++++++++++   OOOoooOOOooo...oooXXXXXX   +++++++++++++++++",
"+++++++++++++++++   OOOoooOOOooo...oooXXXXXX   +++++++++++++++++",
"+++++++++++++++++   OOOoooOOOooo...oooXXXXXX   +++++++++++++++++",
"+++++++++++++++++   OOOoooOOOooo...oooXXXXXX   +++++++++++++++++",
"+++++++++++++++++   OOOoooOOOooo...oooXXXXXX   +++++++++++++++++",
"+++++++++++++++++   OOOoooOOOooo...oooXXXXXX   +++++++++++++++++",
"+++++++++++++++++   OOOoooooo...ooooooXXXXXX   +++++++++++++++++",
"+++++++++++++++++   OOOoooooo...ooooooXXXXXX   +++++++++++++++++",
"+++++++++++++++++   OOOoooooo...ooooooXXXXXX   +++++++++++++++++",
"++++++++++++++++++++   OOOoooooooooXXXXXX   ++++++++++++++++++++",
"++++++++++++++++++++   OOOoooooooooXXXXXX   ++++++++++++++++++++",
"++++++++++++++++++++   OOOoooooooooXXXXXX   ++++++++++++++++++++",
"+++++++++++++++++++++++   XXXXXXXXXXXX   +++++++++++++++++++++++",
"+++++++++++++++++++++++   XXXXXXXXXXXX   +++++++++++++++++++++++",
"+++++++++++++++++++++++   XXXXXXXXXXXX   +++++++++++++++++++++++",
"++++++++++++++++++++++++++            ++++++++++++++++++++++++++",
"++++++++++++++++++++++++++            ++++++++++++++++++++++++++",
"++++++++++++++++++++++++++            ++++++++++++++++++++++++++",
"++++++++++++++++++++++++++++++++++++++++++++++++++++++++++++++++",
"++++++++++++++++++++++++++++++++++++++++++++++++++++++++++++++++",
"++++++++++++++++++++++++++++++++++++++++++++++++++++++++++++++++",
"++++++++++++++++++++++++++++++++++++++++++++++++++++++++++++++++",
"++++++++++++++++++++++++++++++++++++++++++++++++++++++++++++++++",
"++++++++++++++++++++++++++++++++++++++++++++++++++++++++++++++++",
"++++++++++++++++++++++++++++++++++++++++++++++++++++++++++++++++",
"++++++++++++++++++++++++++++++++++++++++++++++++++++++++++++++++",
"++++++++++++++++++++++++++++++++++++++++++++++++++++++++++++++++",
"++++++++++++++++++++++++++++++++++++++++++++++++++++++++++++++++",
"++++++++++++++++++++++++++++++++++++++++++++++++++++++++++++++++",
"++++++++++++++++++++++++++++++++++++++++++++++++++++++++++++++++",
"++++++++++++++++++++++++++++++++++++++++++++++++++++++++++++++++",
"++++++++++++++++++++++++++++++++++++++++++++++++++++++++++++++++"
};
