/* XPM */
static char *result[] = {
/* columns rows colors chars-per-pixel */
"64 64 6 1 ",
"  c black",
". c #F76A22",
"X c #F77622",
"o c #FEAE34",
"O c #FEE761",
"+ c None",
/* pixels */
"++++++++++++++++++++++++++++++++++++++++++++++++++++++++++++++++",
"++++++++++++++++++++++++++++++++++++++++++++++++++++++++++++++++",
"++++++++++++++++++++++++++++++++++++++++++++++++++++++++++++++++",
"++++++++++++++++++++++++++++++++++++++++++++++++++++++++++++++++",
"++++++++++++++++++++++++++++++++++++++++++++++++++++++++++++++++",
"++++++++++++++++++++++++++++++++++++++++++++++++++++++++++++++++",
"++++++++++++++++++++++++++++++++++++++++++++++++++++++++++++++++",
"++++++++++++++++++++++++++++++++++++++++++++++++++++++++++++++++",
"++++++++++++++++++++++++++++++++++++++++++++++++++++++++++++++++",
"++++++++++++++++++++++++++++++++++++++++++++++++++++++++++++++++",
"++++++++++++++++++++++++++++++++++++++++++++++++++++++++++++++++",
"++++++++++++++++++++++++++++++++++++++++++++++++++++++++++++++++",
"++++++++++++++++++++++++++++++++++++++++++++++++++++++++++++++++",
"++++++++++++++++++++++++++++++++++++++++++++++++++++++++++++++++",
"++++++++++++++++++++++++++++++++++++++++++++++++++++++++++++++++",
"++++++++++++++++++++++++++++      ++++++++++++++++++++++++++++++",
"++++++++++++++++++++++++++++      ++++++++++++++++++++++++++++++",
"++++++++++++++++++++++++++++      ++++++++++++++++++++++++++++++",
"+++++++++++++++++++++++++   XXXOOO   +++++++++++++++++++++++++++",
"+++++++++++++++++++++++++   XXXOOO   +++++++++++++++++++++++++++",
"+++++++++++++++++++++++++   XXXOOO   +++++++++++++++++++++++++++",
"++++++++++++++++++++++   XXXXXXoooOOO   ++++++++++++++++++++++++",
"++++++++++++++++++++++   XXXXXXoooOOO   ++++++++++++++++++++++++",
"++++++++++++++++++++++   XXXXXXoooOOO   ++++++++++++++++++++++++",
"+++++++++++++++++++   XXXXXXXXXOOOoooooo   +++++++++++++++++++++",
"+++++++++++++++++++   XXXXXXXXXOOOoooooo   +++++++++++++++++++++",
"+++++++++++++++++++   XXXXXXXXXOOOoooooo   +++++++++++++++++++++",
"+++++++++++++++++++   XXXXXXXXX...OOOooo   +++++++++++++++++++++",
"+++++++++++++++++++   XXXXXXXXX...OOOooo   +++++++++++++++++++++",
"+++++++++++++++++++   XXXXXXXXX...OOOooo   +++++++++++++++++++++",
"+++++++++++++++++++   XXXXXXXXX...OOOooo   +++++++++++++++++++++",
"+++++++++++++++++++   XXXXXXXXX...OOOooo   +++++++++++++++++++++",
"+++++++++++++++++++   XXXXXXXXX...OOOooo   +++++++++++++++++++++",
"+++++++++++++++++++   XXXXXXXXX...OOOooo   +++++++++++++++++++++",
"+++++++++++++++++++   XXXXXXXXX...OOOooo   +++++++++++++++++++++",
"+++++++++++++++++++   XXXXXXXXX...OOOooo   +++++++++++++++++++++",
"+++++++++++++++++++   XXXXXXXXX...OOOooo   +++++++++++++++++++++",
"+++++++++++++++++++   XXXXXXXXX...OOOooo   +++++++++++++++++++++",
"+++++++++++++++++++   XXXXXXXXX...OOOooo   +++++++++++++++++++++",
"+++++++++++++++++++   XXXXXXXXX...oooooo   +++++++++++++++++++++",
"+++++++++++++++++++   XXXXXXXXX...oooooo   +++++++++++++++++++++",
"+++++++++++++++++++   XXXXXXXXX...oooooo   +++++++++++++++++++++",
"++++++++++++++++++++++   XXXXXXoooooo   ++++++++++++++++++++++++",
"++++++++++++++++++++++   XXXXXXoooooo   ++++++++++++++++++++++++",
"++++++++++++++++++++++   XXXXXXoooooo   ++++++++++++++++++++++++",
"+++++++++++++++++++++++++   XXXXXX   +++++++++++++++++++++++++++",
"+++++++++++++++++++++++++   XXXXXX   +++++++++++++++++++++++++++",
"+++++++++++++++++++++++++   XXXXXX   +++++++++++++++++++++++++++",
"++++++++++++++++++++++++++++      ++++++++++++++++++++++++++++++",
"++++++++++++++++++++++++++++      ++++++++++++++++++++++++++++++",
"++++++++++++++++++++++++++++      ++++++++++++++++++++++++++++++",
"++++++++++++++++++++++++++++++++++++++++++++++++++++++++++++++++",
"++++++++++++++++++++++++++++++++++++++++++++++++++++++++++++++++",
"++++++++++++++++++++++++++++++++++++++++++++++++++++++++++++++++",
"++++++++++++++++++++++++++++++++++++++++++++++++++++++++++++++++",
"++++++++++++++++++++++++++++++++++++++++++++++++++++++++++++++++",
"++++++++++++++++++++++++++++++++++++++++++++++++++++++++++++++++",
"++++++++++++++++++++++++++++++++++++++++++++++++++++++++++++++++",
"++++++++++++++++++++++++++++++++++++++++++++++++++++++++++++++++",
"++++++++++++++++++++++++++++++++++++++++++++++++++++++++++++++++",
"++++++++++++++++++++++++++++++++++++++++++++++++++++++++++++++++",
"++++++++++++++++++++++++++++++++++++++++++++++++++++++++++++++++",
"++++++++++++++++++++++++++++++++++++++++++++++++++++++++++++++++",
"++++++++++++++++++++++++++++++++++++++++++++++++++++++++++++++++"
};
