/* XPM */
static char *_411466bd3b64b5fc4b99cee6131fb986do1c3ltIe7txlHh[] = {
/* columns rows colors chars-per-pixel */
"64 64 4 1 ",
"  c None",
". c #386900",
"X c #51A200",
"o c #9AEB00",
/* pixels */
"                                                                ",
"                                                                ",
"                                                                ",
"                                                                ",
"                                                                ",
"                                                                ",
"                                                                ",
"                                                                ",
"                                                                ",
"                                                                ",
"                                                                ",
"                                                                ",
"                                                                ",
"                                                                ",
"                          ...XXXXXXXXX                          ",
"                          ...XXXXXXXXX                          ",
"                          ...XXXXXXXXX                          ",
"                    ......XXXXXXXXX...XXXXXX                    ",
"                    ......XXXXXXXXX...XXXXXX                    ",
"                    ......XXXXXXXXX...XXXXXX                    ",
"                 ......XXXXXXXXXXXXXXX......XXX                 ",
"                 ......XXXXXXXXXXXXXXX......XXX                 ",
"                 ......XXXXXXXXXXXXXXX......XXX                 ",
"                 ......XXXXXXoooXXXXXXXXX......                 ",
"                 ......XXXXXXoooXXXXXXXXX......                 ",
"                 ......XXXXXXoooXXXXXXXXX......                 ",
"              ......XXXXXXXXXoooXXXXXXXXXXXX......              ",
"              ......XXXXXXXXXoooXXXXXXXXXXXX......              ",
"              ......XXXXXXXXXoooXXXXXXXXXXXX......              ",
"              ......XXXXXXoooooooooXXXXXXXXX......              ",
"              ......XXXXXXoooooooooXXXXXXXXX......              ",
"              ......XXXXXXoooooooooXXXXXXXXX......              ",
"              ......XXXXXXoooooooooXXXXXXXXX......              ",
"              ......XXXXXXoooooooooXXXXXXXXX......              ",
"              ......XXXXXXoooooooooXXXXXXXXX......              ",
"              ......XXXXXXoooooooooXXXXXXXXX......              ",
"              ......XXXXXXoooooooooXXXXXXXXX......              ",
"              ......XXXXXXoooooooooXXXXXXXXX......              ",
"                 ......XXXXXXoooXXXXXXXXX......                 ",
"                 ......XXXXXXoooXXXXXXXXX......                 ",
"                 ......XXXXXXoooXXXXXXXXX......                 ",
"                 XXX......XXXoooXXXXXXXXX......                 ",
"                 XXX......XXXoooXXXXXXXXX......                 ",
"                 XXX......XXXoooXXXXXXXXX......                 ",
"                    XXX......XXXXXXXXX......                    ",
"                    XXX......XXXXXXXXX......                    ",
"                    XXX......XXXXXXXXX......                    ",
"                       XXXXXXXXXXXX...                          ",
"                       XXXXXXXXXXXX...                          ",
"                       XXXXXXXXXXXX...                          ",
"                                                                ",
"                                                                ",
"                                                                ",
"                                                                ",
"                                                                ",
"                                                                ",
"                                                                ",
"                                                                ",
"                                                                ",
"                                                                ",
"                                                                ",
"                                                                ",
"                                                                ",
"                                                                "
};
