/* XPM */
static char *result[] = {
/* columns rows colors chars-per-pixel */
"64 64 4 1 ",
"  c #386900",
". c #51A200",
"X c #9AEB00",
"o c None",
/* pixels */
"oooooooooooooooooooooooooooooooooooooooooooooooooooooooooooooooo",
"oooooooooooooooooooooooooooooooooooooooooooooooooooooooooooooooo",
"oooooooooooooooooooooooooooooooooooooooooooooooooooooooooooooooo",
"oooooooooooooooooooooooooooooooooooooooooooooooooooooooooooooooo",
"oooooooooooooooooooooooooooooooooooooooooooooooooooooooooooooooo",
"oooooooooooooooooooooooooooooooooooooooooooooooooooooooooooooooo",
"oooooooooooooooooooooooooooooooooooooooooooooooooooooooooooooooo",
"oooooooooooooooooooooooooooooooooooooooooooooooooooooooooooooooo",
"oooooooooooooooooooooooooooooooooooooooooooooooooooooooooooooooo",
"oooooooooooooooooooooooooooooooooooooooooooooooooooooooooooooooo",
"oooooooooooooooooooooooooooooooooooooooooooooooooooooooooooooooo",
"oooooooooooooooooooooooooooooooooooooooooooooooooooooooooooooooo",
"oooooooooooooooooooooooooooooooooooooooooooooooooooooooooooooooo",
"oooooooooooooooooooooooooooooooooooooooooooooooooooooooooooooooo",
"oooooooooooooooooooo                  oooooooooooooooooooooooooo",
"oooooooooooooooooooo                  oooooooooooooooooooooooooo",
"oooooooooooooooooooo                  oooooooooooooooooooooooooo",
"ooooooooooooooooo......                     oooooooooooooooooooo",
"ooooooooooooooooo......                     oooooooooooooooooooo",
"ooooooooooooooooo......                     oooooooooooooooooooo",
"oooooooooooooo......                           ooooooooooooooooo",
"oooooooooooooo......                           ooooooooooooooooo",
"oooooooooooooo......                           ooooooooooooooooo",
"ooooooooooo   ...                           XXX...   ooooooooooo",
"ooooooooooo   ...                           XXX...   ooooooooooo",
"ooooooooooo   ...                           XXX...   ooooooooooo",
"ooooooooooo......                           XXXXXX...ooooooooooo",
"ooooooooooo......                           XXXXXX...ooooooooooo",
"ooooooooooo......                           XXXXXX...ooooooooooo",
"ooooooooooo......                           ...XXX...ooooooooooo",
"ooooooooooo......                           ...XXX...ooooooooooo",
"ooooooooooo......                           ...XXX...ooooooooooo",
"ooooooooooo...XXX...                           ......ooooooooooo",
"ooooooooooo...XXX...                           ......ooooooooooo",
"ooooooooooo...XXX...                           ......ooooooooooo",
"ooooooooooo...XXXXXX                           ......ooooooooooo",
"ooooooooooo...XXXXXX                           ......ooooooooooo",
"ooooooooooo...XXXXXX                           ......ooooooooooo",
"ooooooooooo   ...XXX                           ......ooooooooooo",
"ooooooooooo   ...XXX                           ......ooooooooooo",
"ooooooooooo   ...XXX                           ......ooooooooooo",
"ooooooooooooooooo                           ......oooooooooooooo",
"ooooooooooooooooo                           ......oooooooooooooo",
"ooooooooooooooooo                           ......oooooooooooooo",
"oooooooooooooooooooo                     ......ooooooooooooooooo",
"oooooooooooooooooooo                     ......ooooooooooooooooo",
"oooooooooooooooooooo                     ......ooooooooooooooooo",
"oooooooooooooooooooooooooo                  oooooooooooooooooooo",
"oooooooooooooooooooooooooo                  oooooooooooooooooooo",
"oooooooooooooooooooooooooo                  oooooooooooooooooooo",
"oooooooooooooooooooooooooooooooooooooooooooooooooooooooooooooooo",
"oooooooooooooooooooooooooooooooooooooooooooooooooooooooooooooooo",
"oooooooooooooooooooooooooooooooooooooooooooooooooooooooooooooooo",
"oooooooooooooooooooooooooooooooooooooooooooooooooooooooooooooooo",
"oooooooooooooooooooooooooooooooooooooooooooooooooooooooooooooooo",
"oooooooooooooooooooooooooooooooooooooooooooooooooooooooooooooooo",
"oooooooooooooooooooooooooooooooooooooooooooooooooooooooooooooooo",
"oooooooooooooooooooooooooooooooooooooooooooooooooooooooooooooooo",
"oooooooooooooooooooooooooooooooooooooooooooooooooooooooooooooooo",
"oooooooooooooooooooooooooooooooooooooooooooooooooooooooooooooooo",
"oooooooooooooooooooooooooooooooooooooooooooooooooooooooooooooooo",
"oooooooooooooooooooooooooooooooooooooooooooooooooooooooooooooooo",
"oooooooooooooooooooooooooooooooooooooooooooooooooooooooooooooooo",
"oooooooooooooooooooooooooooooooooooooooooooooooooooooooooooooooo"
};
