/* XPM */
static char *result[] = {
/* columns rows colors chars-per-pixel */
"64 64 4 1 ",
"  c #386900",
". c #51A200",
"X c #9AEB00",
"o c None",
/* pixels */
"oooooooooooooooooooooooooooooooooooooooooooooooooooooooooooooooo",
"oooooooooooooooooooooooooooooooooooooooooooooooooooooooooooooooo",
"oooooooooooooooooooooooooooooooooooooooooooooooooooooooooooooooo",
"oooooooooooooooooooooooooooooooooooooooooooooooooooooooooooooooo",
"oooooooooooooooooooooooooooooooooooooooooooooooooooooooooooooooo",
"oooooooooooooooooooooooooooooooooooooooooooooooooooooooooooooooo",
"oooooooooooooooooooooooooooooooooooooooooooooooooooooooooooooooo",
"oooooooooooooooooooooooooooooooooooooooooooooooooooooooooooooooo",
"oooooooooooooooooooooooooooooooooooooooooooooooooooooooooooooooo",
"oooooooooooooooooooooooooo.........ooooooooooooooooooooooooooooo",
"oooooooooooooooooooooooooo.........ooooooooooooooooooooooooooooo",
"oooooooooooooooooooooooooo.........ooooooooooooooooooooooooooooo",
"ooooooooooooooooooooooo...XXX...............oooooooooooooooooooo",
"ooooooooooooooooooooooo...XXX...............oooooooooooooooooooo",
"ooooooooooooooooooooooo...XXX...............oooooooooooooooooooo",
"oooooooooooooooooooo...XXX.........   oooooooooooooooooooooooooo",
"oooooooooooooooooooo...XXX.........   oooooooooooooooooooooooooo",
"oooooooooooooooooooo...XXX.........   oooooooooooooooooooooooooo",
"ooooooooooooooooo...XXX......               oooooooooooooooooooo",
"ooooooooooooooooo...XXX......               oooooooooooooooooooo",
"ooooooooooooooooo...XXX......               oooooooooooooooooooo",
"oooooooooooooooooXXXXXX..................      ooooooooooooooooo",
"oooooooooooooooooXXXXXX..................      ooooooooooooooooo",
"oooooooooooooooooXXXXXX..................      ooooooooooooooooo",
"oooooooooooooo...XXXXXXXXX..................   ooooooooooooooooo",
"oooooooooooooo...XXXXXXXXX..................   ooooooooooooooooo",
"oooooooooooooo...XXXXXXXXX..................   ooooooooooooooooo",
"oooooooooooooo...XXXXXXXXXXXXXXX...............   oooooooooooooo",
"oooooooooooooo...XXXXXXXXXXXXXXX...............   oooooooooooooo",
"oooooooooooooo...XXXXXXXXXXXXXXX...............   oooooooooooooo",
"oooooooooooooo   ...XXXXXXXXXXXXXXXXXXXXX......   oooooooooooooo",
"oooooooooooooo   ...XXXXXXXXXXXXXXXXXXXXX......   oooooooooooooo",
"oooooooooooooo   ...XXXXXXXXXXXXXXXXXXXXX......   oooooooooooooo",
"oooooooooooooo   ......XXXXXXXXXXXX......XXX......oooooooooooooo",
"oooooooooooooo   ......XXXXXXXXXXXX......XXX......oooooooooooooo",
"oooooooooooooo   ......XXXXXXXXXXXX......XXX......oooooooooooooo",
"oooooooooooooo      ......XXXXXX.........XXX......oooooooooooooo",
"oooooooooooooo      ......XXXXXX.........XXX......oooooooooooooo",
"oooooooooooooo      ......XXXXXX.........XXX......oooooooooooooo",
"ooooooooooooooooo      ..................XXX...ooooooooooooooooo",
"ooooooooooooooooo      ..................XXX...ooooooooooooooooo",
"ooooooooooooooooo      ..................XXX...ooooooooooooooooo",
"ooooooooooooooooo                  ...XXX......ooooooooooooooooo",
"ooooooooooooooooo                  ...XXX......ooooooooooooooooo",
"ooooooooooooooooo                  ...XXX......ooooooooooooooooo",
"oooooooooooooooooooo         ......XXX......oooooooooooooooooooo",
"oooooooooooooooooooo         ......XXX......oooooooooooooooooooo",
"oooooooooooooooooooo         ......XXX......oooooooooooooooooooo",
"oooooooooooooooooooo.....................ooooooooooooooooooooooo",
"oooooooooooooooooooo.....................ooooooooooooooooooooooo",
"oooooooooooooooooooo.....................ooooooooooooooooooooooo",
"ooooooooooooooooooooooooooooo.........oooooooooooooooooooooooooo",
"ooooooooooooooooooooooooooooo.........oooooooooooooooooooooooooo",
"ooooooooooooooooooooooooooooo.........oooooooooooooooooooooooooo",
"oooooooooooooooooooooooooooooooooooooooooooooooooooooooooooooooo",
"oooooooooooooooooooooooooooooooooooooooooooooooooooooooooooooooo",
"oooooooooooooooooooooooooooooooooooooooooooooooooooooooooooooooo",
"oooooooooooooooooooooooooooooooooooooooooooooooooooooooooooooooo",
"oooooooooooooooooooooooooooooooooooooooooooooooooooooooooooooooo",
"oooooooooooooooooooooooooooooooooooooooooooooooooooooooooooooooo",
"oooooooooooooooooooooooooooooooooooooooooooooooooooooooooooooooo",
"oooooooooooooooooooooooooooooooooooooooooooooooooooooooooooooooo",
"oooooooooooooooooooooooooooooooooooooooooooooooooooooooooooooooo",
"oooooooooooooooooooooooooooooooooooooooooooooooooooooooooooooooo"
};
