/* XPM */
static char *result[] = {
/* columns rows colors chars-per-pixel */
"64 64 4 1 ",
"  c #386900",
". c #51A200",
"X c #9AEB00",
"o c None",
/* pixels */
"oooooooooooooooooooooooooooooooooooooooooooooooooooooooooooooooo",
"oooooooooooooooooooooooooooooooooooooooooooooooooooooooooooooooo",
"oooooooooooooooooooooooooooooooooooooooooooooooooooooooooooooooo",
"oooooooooooooooooooooooooooooooooooooooooooooooooooooooooooooooo",
"oooooooooooooooooooooooooooooooooooooooooooooooooooooooooooooooo",
"oooooooooooooooooooooooooooooooooooooooooooooooooooooooooooooooo",
"oooooooooooooooooooooooooooooooooooooooooooooooooooooooooooooooo",
"oooooooooooooooooooooooooooooooooooooooooooooooooooooooooooooooo",
"oooooooooooooooooooooooooooooooooooooooooooooooooooooooooooooooo",
"oooooooooooooooooooooooooooooooooooooooooooooooooooooooooooooooo",
"oooooooooooooooooooooooooooooooooooooooooooooooooooooooooooooooo",
"oooooooooooooooooooooooooooooooooooooooooooooooooooooooooooooooo",
"oooooooooooooooooooooooooooooooooooooooooooooooooooooooooooooooo",
"oooooooooooooooooooooooooooooooooooooooooooooooooooooooooooooooo",
"oooooooooooooooooooooooo         XXXXXX...oooooooooooooooooooooo",
"oooooooooooooooooooooooo         XXXXXX...oooooooooooooooooooooo",
"oooooooooooooooooooooooo         XXXXXX...oooooooooooooooooooooo",
"oooooooooooooooooo               XXXXXXXXX...ooooooooooooooooooo",
"oooooooooooooooooo               XXXXXXXXX...ooooooooooooooooooo",
"oooooooooooooooooo               XXXXXXXXX...ooooooooooooooooooo",
"ooooooooooooooo   ...               XXX......   oooooooooooooooo",
"ooooooooooooooo   ...               XXX......   oooooooooooooooo",
"ooooooooooooooo   ...               XXX......   oooooooooooooooo",
"ooooooooooooooo...                        ......oooooooooooooooo",
"ooooooooooooooo...                        ......oooooooooooooooo",
"ooooooooooooooo...                        ......oooooooooooooooo",
"oooooooooooo   ...                           ...   ooooooooooooo",
"oooooooooooo   ...                           ...   ooooooooooooo",
"oooooooooooo   ...                           ...   ooooooooooooo",
"oooooooooooo   ...                           ...   ooooooooooooo",
"oooooooooooo   ...                           ...   ooooooooooooo",
"oooooooooooo   ...                           ...   ooooooooooooo",
"oooooooooooo   ...                           ...   ooooooooooooo",
"oooooooooooo   ...                           ...   ooooooooooooo",
"oooooooooooo   ...                           ...   ooooooooooooo",
"oooooooooooo   ...                           ...   ooooooooooooo",
"oooooooooooo   ...                           ...   ooooooooooooo",
"oooooooooooo   ...                           ...   ooooooooooooo",
"ooooooooooooooo......                        ...oooooooooooooooo",
"ooooooooooooooo......                        ...oooooooooooooooo",
"ooooooooooooooo......                        ...oooooooooooooooo",
"ooooooooooooooo   ......XXX               ...   oooooooooooooooo",
"ooooooooooooooo   ......XXX               ...   oooooooooooooooo",
"ooooooooooooooo   ......XXX               ...   oooooooooooooooo",
"oooooooooooooooooo...XXXXXXXXX               ooooooooooooooooooo",
"oooooooooooooooooo...XXXXXXXXX               ooooooooooooooooooo",
"oooooooooooooooooo...XXXXXXXXX               ooooooooooooooooooo",
"ooooooooooooooooooooo...XXXXXX         ooooooooooooooooooooooooo",
"ooooooooooooooooooooo...XXXXXX         ooooooooooooooooooooooooo",
"ooooooooooooooooooooo...XXXXXX         ooooooooooooooooooooooooo",
"oooooooooooooooooooooooooooooooooooooooooooooooooooooooooooooooo",
"oooooooooooooooooooooooooooooooooooooooooooooooooooooooooooooooo",
"oooooooooooooooooooooooooooooooooooooooooooooooooooooooooooooooo",
"oooooooooooooooooooooooooooooooooooooooooooooooooooooooooooooooo",
"oooooooooooooooooooooooooooooooooooooooooooooooooooooooooooooooo",
"oooooooooooooooooooooooooooooooooooooooooooooooooooooooooooooooo",
"oooooooooooooooooooooooooooooooooooooooooooooooooooooooooooooooo",
"oooooooooooooooooooooooooooooooooooooooooooooooooooooooooooooooo",
"oooooooooooooooooooooooooooooooooooooooooooooooooooooooooooooooo",
"oooooooooooooooooooooooooooooooooooooooooooooooooooooooooooooooo",
"oooooooooooooooooooooooooooooooooooooooooooooooooooooooooooooooo",
"oooooooooooooooooooooooooooooooooooooooooooooooooooooooooooooooo",
"oooooooooooooooooooooooooooooooooooooooooooooooooooooooooooooooo",
"oooooooooooooooooooooooooooooooooooooooooooooooooooooooooooooooo"
};
