/* XPM */
static char *result[] = {
/* columns rows colors chars-per-pixel */
"64 64 4 1 ",
"  c #386900",
". c #51A200",
"X c #9AEB00",
"o c None",
/* pixels */
"oooooooooooooooooooooooooooooooooooooooooooooooooooooooooooooooo",
"oooooooooooooooooooooooooooooooooooooooooooooooooooooooooooooooo",
"oooooooooooooooooooooooooooooooooooooooooooooooooooooooooooooooo",
"oooooooooooooooooooooooooooooooooooooooooooooooooooooooooooooooo",
"oooooooooooooooooooooooooooooooooooooooooooooooooooooooooooooooo",
"oooooooooooooooooooooooooooooooooooooooooooooooooooooooooooooooo",
"oooooooooooooooooooooooooooooooooooooooooooooooooooooooooooooooo",
"oooooooooooooooooooooooooooooooooooooooooooooooooooooooooooooooo",
"oooooooooooooooooooooooooooooooooooooooooooooooooooooooooooooooo",
"oooooooooooooooooooooooooooooooooooooooooooooooooooooooooooooooo",
"oooooooooooooooooooooooooooooooooooooooooooooooooooooooooooooooo",
"oooooooooooooooooooooooooooooooooooooooooooooooooooooooooooooooo",
"oooooooooooooooooooooooooooooooooooooooooooooooooooooooooooooooo",
"oooooooooooooooooooooooooooooooooooooooooooooooooooooooooooooooo",
"ooooooooooooooooooooooooooXXX.........oooooooooooooooooooooooooo",
"ooooooooooooooooooooooooooXXX.........oooooooooooooooooooooooooo",
"ooooooooooooooooooooooooooXXX.........oooooooooooooooooooooooooo",
"ooooooooooooooooooooooo   XXXXXXXXX.........oooooooooooooooooooo",
"ooooooooooooooooooooooo   XXXXXXXXX.........oooooooooooooooooooo",
"ooooooooooooooooooooooo   XXXXXXXXX.........oooooooooooooooooooo",
"oooooooooooooooooooo      XXX            ......ooooooooooooooooo",
"oooooooooooooooooooo      XXX            ......ooooooooooooooooo",
"oooooooooooooooooooo      XXX            ......ooooooooooooooooo",
"ooooooooooooooooo                           ...ooooooooooooooooo",
"ooooooooooooooooo                           ...ooooooooooooooooo",
"ooooooooooooooooo                           ...ooooooooooooooooo",
"oooooooooooooo...            XXXXXX...   ...   ...oooooooooooooo",
"oooooooooooooo...            XXXXXX...   ...   ...oooooooooooooo",
"oooooooooooooo...            XXXXXX...   ...   ...oooooooooooooo",
"oooooooooooooo...         XXX         ...      ...oooooooooooooo",
"oooooooooooooo...         XXX         ...      ...oooooooooooooo",
"oooooooooooooo...         XXX         ...      ...oooooooooooooo",
"oooooooooooooo...      ...                     ...oooooooooooooo",
"oooooooooooooo...      ...                     ...oooooooooooooo",
"oooooooooooooo...      ...                     ...oooooooooooooo",
"oooooooooooooo...      ...                        oooooooooooooo",
"oooooooooooooo...      ...                        oooooooooooooo",
"oooooooooooooo...      ...                        oooooooooooooo",
"ooooooooooooooooo...   ...                        oooooooooooooo",
"ooooooooooooooooo...   ...                        oooooooooooooo",
"ooooooooooooooooo...   ...                        oooooooooooooo",
"ooooooooooooooooo......      ...XXXXXX         ooooooooooooooooo",
"ooooooooooooooooo......      ...XXXXXX         ooooooooooooooooo",
"ooooooooooooooooo......      ...XXXXXX         ooooooooooooooooo",
"oooooooooooooooooooo.........XXXXXX...      oooooooooooooooooooo",
"oooooooooooooooooooo.........XXXXXX...      oooooooooooooooooooo",
"oooooooooooooooooooo.........XXXXXX...      oooooooooooooooooooo",
"oooooooooooooooooooooooooo............oooooooooooooooooooooooooo",
"oooooooooooooooooooooooooo............oooooooooooooooooooooooooo",
"oooooooooooooooooooooooooo............oooooooooooooooooooooooooo",
"oooooooooooooooooooooooooooooooooooooooooooooooooooooooooooooooo",
"oooooooooooooooooooooooooooooooooooooooooooooooooooooooooooooooo",
"oooooooooooooooooooooooooooooooooooooooooooooooooooooooooooooooo",
"oooooooooooooooooooooooooooooooooooooooooooooooooooooooooooooooo",
"oooooooooooooooooooooooooooooooooooooooooooooooooooooooooooooooo",
"oooooooooooooooooooooooooooooooooooooooooooooooooooooooooooooooo",
"oooooooooooooooooooooooooooooooooooooooooooooooooooooooooooooooo",
"oooooooooooooooooooooooooooooooooooooooooooooooooooooooooooooooo",
"oooooooooooooooooooooooooooooooooooooooooooooooooooooooooooooooo",
"oooooooooooooooooooooooooooooooooooooooooooooooooooooooooooooooo",
"oooooooooooooooooooooooooooooooooooooooooooooooooooooooooooooooo",
"oooooooooooooooooooooooooooooooooooooooooooooooooooooooooooooooo",
"oooooooooooooooooooooooooooooooooooooooooooooooooooooooooooooooo",
"oooooooooooooooooooooooooooooooooooooooooooooooooooooooooooooooo"
};
