/* XPM */
static char *result[] = {
/* columns rows colors chars-per-pixel */
"64 64 4 1 ",
"  c #386900",
". c #51A200",
"X c #9AEB00",
"o c None",
/* pixels */
"oooooooooooooooooooooooooooooooooooooooooooooooooooooooooooooooo",
"oooooooooooooooooooooooooooooooooooooooooooooooooooooooooooooooo",
"oooooooooooooooooooooooooooooooooooooooooooooooooooooooooooooooo",
"oooooooooooooooooooooooooooooooooooooooooooooooooooooooooooooooo",
"oooooooooooooooooooooooooooooooooooooooooooooooooooooooooooooooo",
"oooooooooooooooooooooooooooooooooooooooooooooooooooooooooooooooo",
"oooooooooooooooooooooooooooooooooooooooooooooooooooooooooooooooo",
"oooooooooooooooooooooooooooooooooooooooooooooooooooooooooooooooo",
"oooooooooooooooooooooooooooooooooooooooooooooooooooooooooooooooo",
"oooooooooooooooooooooooooooooooooooooooooooooooooooooooooooooooo",
"oooooooooooooooooooooooooooooooooooooooooooooooooooooooooooooooo",
"oooooooooooooooooooooooooooooooooooooooooooooooooooooooooooooooo",
"oooooooooooooooooooooooooooooooooooooooooooooooooooooooooooooooo",
"oooooooooooooooooooooooooooooooooooooooooooooooooooooooooooooooo",
"oooooooooooooooooooooooooo            oooooooooooooooooooooooooo",
"oooooooooooooooooooooooooo            oooooooooooooooooooooooooo",
"oooooooooooooooooooooooooo            oooooooooooooooooooooooooo",
"oooooooooooooooooooo         ...            oooooooooooooooooooo",
"oooooooooooooooooooo         ...            oooooooooooooooooooo",
"oooooooooooooooooooo         ...            oooooooooooooooooooo",
"ooooooooooooooooo         ...                  ooooooooooooooooo",
"ooooooooooooooooo         ...                  ooooooooooooooooo",
"ooooooooooooooooo         ...                  ooooooooooooooooo",
"ooooooooooooooooo      ...                     ooooooooooooooooo",
"ooooooooooooooooo      ...                     ooooooooooooooooo",
"ooooooooooooooooo      ...                     ooooooooooooooooo",
"oooooooooooooo         ...   ......               oooooooooooooo",
"oooooooooooooo         ...   ......               oooooooooooooo",
"oooooooooooooo         ...   ......               oooooooooooooo",
"oooooooooooooo         ......XXXXXX...            oooooooooooooo",
"oooooooooooooo         ......XXXXXX...            oooooooooooooo",
"oooooooooooooo         ......XXXXXX...            oooooooooooooo",
"oooooooooooooo            ...XXXXXX......         oooooooooooooo",
"oooooooooooooo            ...XXXXXX......         oooooooooooooo",
"oooooooooooooo            ...XXXXXX......         oooooooooooooo",
"oooooooooooooo               ......   ...         oooooooooooooo",
"oooooooooooooo               ......   ...         oooooooooooooo",
"oooooooooooooo               ......   ...         oooooooooooooo",
"ooooooooooooooooo                     ...      ooooooooooooooooo",
"ooooooooooooooooo                     ...      ooooooooooooooooo",
"ooooooooooooooooo                     ...      ooooooooooooooooo",
"ooooooooooooooooo                  ...         ooooooooooooooooo",
"ooooooooooooooooo                  ...         ooooooooooooooooo",
"ooooooooooooooooo                  ...         ooooooooooooooooo",
"oooooooooooooooooooo            ...         oooooooooooooooooooo",
"oooooooooooooooooooo            ...         oooooooooooooooooooo",
"oooooooooooooooooooo            ...         oooooooooooooooooooo",
"oooooooooooooooooooooooooo            oooooooooooooooooooooooooo",
"oooooooooooooooooooooooooo            oooooooooooooooooooooooooo",
"oooooooooooooooooooooooooo            oooooooooooooooooooooooooo",
"oooooooooooooooooooooooooooooooooooooooooooooooooooooooooooooooo",
"oooooooooooooooooooooooooooooooooooooooooooooooooooooooooooooooo",
"oooooooooooooooooooooooooooooooooooooooooooooooooooooooooooooooo",
"oooooooooooooooooooooooooooooooooooooooooooooooooooooooooooooooo",
"oooooooooooooooooooooooooooooooooooooooooooooooooooooooooooooooo",
"oooooooooooooooooooooooooooooooooooooooooooooooooooooooooooooooo",
"oooooooooooooooooooooooooooooooooooooooooooooooooooooooooooooooo",
"oooooooooooooooooooooooooooooooooooooooooooooooooooooooooooooooo",
"oooooooooooooooooooooooooooooooooooooooooooooooooooooooooooooooo",
"oooooooooooooooooooooooooooooooooooooooooooooooooooooooooooooooo",
"oooooooooooooooooooooooooooooooooooooooooooooooooooooooooooooooo",
"oooooooooooooooooooooooooooooooooooooooooooooooooooooooooooooooo",
"oooooooooooooooooooooooooooooooooooooooooooooooooooooooooooooooo",
"oooooooooooooooooooooooooooooooooooooooooooooooooooooooooooooooo"
};
