/* XPM */
static char *result[] = {
/* columns rows colors chars-per-pixel */
"64 64 4 1 ",
"  c #386900",
". c #51A200",
"X c #9AEB00",
"o c None",
/* pixels */
"oooooooooooooooooooooooooooooooooooooooooooooooooooooooooooooooo",
"oooooooooooooooooooooooooooooooooooooooooooooooooooooooooooooooo",
"oooooooooooooooooooooooooooooooooooooooooooooooooooooooooooooooo",
"oooooooooooooooooooooooooooooooooooooooooooooooooooooooooooooooo",
"oooooooooooooooooooooooooooooooooooooooooooooooooooooooooooooooo",
"oooooooooooooooooooooooooooooooooooooooooooooooooooooooooooooooo",
"oooooooooooooooooooooooooooooooooooooooooooooooooooooooooooooooo",
"oooooooooooooooooooooooooooooooooooooooooooooooooooooooooooooooo",
"oooooooooooooooooooooooooooooooooooooooooooooooooooooooooooooooo",
"oooooooooooooooooooooooooooooooooooooooooooooooooooooooooooooooo",
"oooooooooooooooooooooooooooooooooooooooooooooooooooooooooooooooo",
"oooooooooooooooooooooooooooooooooooooooooooooooooooooooooooooooo",
"oooooooooooooooooooooooooooooooooooooooooooooooooooooooooooooooo",
"oooooooooooooooooooooooooooooooooooooooooooooooooooooooooooooooo",
"ooooooooooooooooooooooooXXXXXXXXXXXXoooooooooooooooooooooooooooo",
"ooooooooooooooooooooooooXXXXXXXXXXXXoooooooooooooooooooooooooooo",
"ooooooooooooooooooooooooXXXXXXXXXXXXoooooooooooooooooooooooooooo",
"ooooooooooooooooooXXXXXXXXXXXXXXXXXXXXXXXXoooooooooooooooooooooo",
"ooooooooooooooooooXXXXXXXXXXXXXXXXXXXXXXXXoooooooooooooooooooooo",
"ooooooooooooooooooXXXXXXXXXXXXXXXXXXXXXXXXoooooooooooooooooooooo",
"oooooooooooooooXXXXXXXXXXXXXXXXXXXXXXXXXXXXXXooooooooooooooooooo",
"oooooooooooooooXXXXXXXXXXXXXXXXXXXXXXXXXXXXXXooooooooooooooooooo",
"oooooooooooooooXXXXXXXXXXXXXXXXXXXXXXXXXXXXXXooooooooooooooooooo",
"oooooooooooooooXXXXXXXXXXXXXXXXXXXXXXXXXXXXXXooooooooooooooooooo",
"oooooooooooooooXXXXXXXXXXXXXXXXXXXXXXXXXXXXXXooooooooooooooooooo",
"oooooooooooooooXXXXXXXXXXXXXXXXXXXXXXXXXXXXXXooooooooooooooooooo",
"ooooooooooooXXXXXXXXXXXXXXXXXXXXXXXXXXX         oooooooooooooooo",
"ooooooooooooXXXXXXXXXXXXXXXXXXXXXXXXXXX         oooooooooooooooo",
"ooooooooooooXXXXXXXXXXXXXXXXXXXXXXXXXXX         oooooooooooooooo",
"ooooooooo   XXXXXXXXXXXXXXXXXXXXXXXX   XXXXXXXXXoooooooooooooooo",
"ooooooooo   XXXXXXXXXXXXXXXXXXXXXXXX   XXXXXXXXXoooooooooooooooo",
"ooooooooo   XXXXXXXXXXXXXXXXXXXXXXXX   XXXXXXXXXoooooooooooooooo",
"ooooooooo   XXXXXXXXXXXXXXXXXXXXX   ...XXXXXXXXXoooooooooooooooo",
"ooooooooo   XXXXXXXXXXXXXXXXXXXXX   ...XXXXXXXXXoooooooooooooooo",
"ooooooooo   XXXXXXXXXXXXXXXXXXXXX   ...XXXXXXXXXoooooooooooooooo",
"ooooooooo   XXXXXXXXXXXXXXXXXX......   XXXXXXXXXoooooooooooooooo",
"ooooooooo   XXXXXXXXXXXXXXXXXX......   XXXXXXXXXoooooooooooooooo",
"ooooooooo   XXXXXXXXXXXXXXXXXX......   XXXXXXXXXoooooooooooooooo",
"oooooooooooo   XXXXXX      .........XXXXXXXXXooooooooooooooooooo",
"oooooooooooo   XXXXXX      .........XXXXXXXXXooooooooooooooooooo",
"oooooooooooo   XXXXXX      .........XXXXXXXXXooooooooooooooooooo",
"ooooooooooooooo   ...............XXXXXXXXXXXXooooooooooooooooooo",
"ooooooooooooooo   ...............XXXXXXXXXXXXooooooooooooooooooo",
"ooooooooooooooo   ...............XXXXXXXXXXXXooooooooooooooooooo",
"ooooooooooooooooooXXXXXXXXXXXXXXXXXXXXXXXXoooooooooooooooooooooo",
"ooooooooooooooooooXXXXXXXXXXXXXXXXXXXXXXXXoooooooooooooooooooooo",
"ooooooooooooooooooXXXXXXXXXXXXXXXXXXXXXXXXoooooooooooooooooooooo",
"ooooooooooooooooooooooooXXXXXXXXXXXXoooooooooooooooooooooooooooo",
"ooooooooooooooooooooooooXXXXXXXXXXXXoooooooooooooooooooooooooooo",
"ooooooooooooooooooooooooXXXXXXXXXXXXoooooooooooooooooooooooooooo",
"oooooooooooooooooooooooooooooooooooooooooooooooooooooooooooooooo",
"oooooooooooooooooooooooooooooooooooooooooooooooooooooooooooooooo",
"oooooooooooooooooooooooooooooooooooooooooooooooooooooooooooooooo",
"oooooooooooooooooooooooooooooooooooooooooooooooooooooooooooooooo",
"oooooooooooooooooooooooooooooooooooooooooooooooooooooooooooooooo",
"oooooooooooooooooooooooooooooooooooooooooooooooooooooooooooooooo",
"oooooooooooooooooooooooooooooooooooooooooooooooooooooooooooooooo",
"oooooooooooooooooooooooooooooooooooooooooooooooooooooooooooooooo",
"oooooooooooooooooooooooooooooooooooooooooooooooooooooooooooooooo",
"oooooooooooooooooooooooooooooooooooooooooooooooooooooooooooooooo",
"oooooooooooooooooooooooooooooooooooooooooooooooooooooooooooooooo",
"oooooooooooooooooooooooooooooooooooooooooooooooooooooooooooooooo",
"oooooooooooooooooooooooooooooooooooooooooooooooooooooooooooooooo",
"oooooooooooooooooooooooooooooooooooooooooooooooooooooooooooooooo"
};
