/* XPM */
static char *_13c3d5b27b04979fd644da1e5a747083sbo8AuY2TdHAVpq[] = {
/* columns rows colors chars-per-pixel */
"64 64 4 1 ",
"  c #163C2B",
". c #674D3A",
"X c #9D7658",
"o c #509B66",
/* pixels */
"oooooooooooooooooooooooooooooooooooooooooooooooooooooooooooooooo",
"oooooooooooooooooooooooooooooooooooooooooooooooooooooooooooooooo",
"oooooooooooooooooooooooooooooooooooooooooooooooooooooooooooooooo",
"ooo ooooooo oooooooooooooooooooooooooooooooooooooooo ooooooo ooo",
"oooo oooooo oooo oooooooooooooooooo oooooooooooooooo   oooo oooo",
"ooooo o oo X ooo oooooooooooo oooo   ooooooooooooo o XX oo ooooo",
"oooooo X  XXX   X oooooooo oo  oo  XX ooo ooooooo   XXXX  oooooo",
"oooooo XXXXXXXXXXX oooooo    XX   XXXX   X ooo o XXXXXXXXX ooooo",
"ooooo XXXXXXXXXXXXX      XXXXXXXXXXXXXXXXXX   X XXXXXXXXX oooooo",
"oooo XXXXXXXXXXXXXXXXXXXXXXXXXXXXXXXXXXXXXXXXXXXXXXXXXXXX oooooo",
"oooo XXXXXXXXXXXXXXXXXXXXXXXXXXXXXXXXXXXXXXXXXXXXXXXXXXXXX ooooo",
"ooo  XXXXXXXXXXXXXXXXXXXXXXXXXXXXXXXXXXXXXXXXXXXXXXXXXXXXXX  ooo",
"oooo XXXXXXXXXXXXX.XXXXXXXXXXXXXXXXXXXXXXXXXXXXXXXXXXXXXXX ooooo",
"ooooo XXXXXXXXXXX...XXXXXXXXXXXXXXXXXXXXXXXXXXXX.XXXXXXXX oooooo",
"oooooo XXXXXXXXX.....XXXXXXXXXXXXXXXXXXXXXXXX.....XXXXXXX oooooo",
"ooooo XXXXXXXXXXX...XXXXXXXXXXXXXXXXXXXXXXXXX......XXXXXX oooooo",
"oooooo XXXXXXXXXXX.XXXXXXXXXXXXXXXXXXXXXXXXX.......XXXXXXX  oooo",
"oooooo XXXXXXXXXXXXXXXXXXXXXXXXXXXXXXXXXXXXX.......XXXXXX oooooo",
"oooooo XXXXXXXXXXXXXXXXXXXXXXXXXXXXXXXXXXXXXX.....XXXXXX ooooooo",
"ooooo XXXXXXXXXXXXXXXXXXXXXXXXXXXXXXXXXXXXXXXX....XXXXX oooooooo",
"oooo XXXXXXXXXXXXXXXXXXXXXXXXXXXXXXXXXXXXXXXXXX..XXXXXX oooooooo",
"ooooo XXXXXXXXXXXXXXXXXXXXXXXXXXXXXXXXXXXXXXXXX.XXXXXXX oooooooo",
"ooooo XXXXXXXXXXXXXX.XXXXXXXXXXXXXXXXXXXXXXXXXXXXXXXXXX oooooooo",
"ooooo XXXXXXXXXXX.....XXXXXXXXXXXXXXXXXXXXXXXXXXXXXXXXX oooooooo",
"oooo XXXXXXXXXXXX......XXXXXXXXXXX..XXXXXXXXXXXXXXXXXXX oooooooo",
"ooo XXXXXXXXXXXX.......XXXXXXXXXX....XXXXXXXXXXXXXXXXXXX ooooooo",
"oo  XXXXXXXXXXXX.......XXXXXXXXX.....XXXXXXXXXXXXXXXXXXX  oooooo",
"ooo  XXXXXXXXXXXX.....XXXXXXXXXX.....XXXXXXXXXXXXXXXXXXX ooooooo",
"oooo  XXXXXXXXXXXX....XXXXXXXXXX....XXXXXXXXXXXXXXXXXXXX ooooooo",
"ooooo XXXXXXXXXXXXX..XXXXXXXXXXXX..XXXXXXXXXXXXXXXXXXXXXX  ooooo",
"ooooo XXXXXXXXXXXXX.XXXXXXXXXXXXXXXXXXXXXXXXXXXXXXXXXXXXX oooooo",
"oooo XXXXXXXXXXXXXXXXXXXXXXXXXXXXXXXXXXXXXXXXXXXXXXXXXXX ooooooo",
"ooo  XXXXXXXXXXXXXXXXXXXXXXXXXXXXXXXXXXXXXXXXXXXXXXXXXXX ooooooo",
"ooooo XXXXXXXXXXXXXXXXXXXXXXXXXXXXXXXXXXXXXXXXXXXXXXXXXX  oooooo",
"ooooo XXXXXXXXXXXXXXXXXXXXXXXXXXXXXXXXXXX..XXXXXXXXXXXXXX  ooooo",
"oooo  XXXXXXXXXXXXXXXXXXXXXXXXXXXXXXXXXX.....XXXXXXXXXXXXX  oooo",
"ooooo XXXXXXXXXXXXXXXXXXXXXXXXXXXXXXXXX......XXXXXXXXXXXXX ooooo",
"oooooo XXXXXXXXXXXXXXXXXXXXXXXXXXXXXX........XXXXXXXXXXXX oooooo",
"oooooo XXXXXXXXXXXXXXXXXXXXXXXXXXXXXXX........XXXXXXXXXX ooooooo",
"oooooo XXXXXXXXXXXXXXXXXXXXXXXXXXXXXXXX......XXXXXXXXXXX ooooooo",
"oooooo XXXXXXXXXXXXXXXXXXXXXXXXXXXXXXXXXX...XXXXXXXXXXXX ooooooo",
"oooooo XXXXXXXXXXXXXXXXXXXXXX.XXXXXXXXXXXXXXXXXXXXXXXXXXX oooooo",
"oooooo XXXXXXXXXXXXXXXXXXXXX...XXXXXXXXXXXXXXXXXXXXXXXXX ooooooo",
"ooooo XXXXXXXXXXXXXXXXXXXXX.....XXXXXXXXXXXXXXXXXXXXXXX oooooooo",
"oooo XXXXXXX...XXXXXXXXXXXXX...XXXXXXXXXXXXXXXXXXXXXXXX oooooooo",
"oo  XXXXXXX.....XXXXXXXXXXXXX.XXXXXXXXXXXXXXXXXXXXXXXXX oooooooo",
"oooo XXXXXX......XXXXXXXXXXXXXXXXXXXXXXXXXXXXXXXXXXXXXXX ooooooo",
"oooo XXXXXXX.....XXXXXXXXXXXXXXXXXXXXXXXXXXXXXXXXXXXXXX oooooooo",
"oooo XXXXXXXX...XXXXXXXXXXXXXXXXXXXXXXXXXXXXXXXXXXXXXXXX ooooooo",
"ooo XXXXXXXXXXXXXXXXXXXXXXXXXXXXXXXXXXXXXXXXXXXXXXXXXXXXX oooooo",
"o  XXXXXXXXXXXXXXXXXXXXXXXXXXXXXXXXXXXXXXXXXXXXXXXXXXXXXX  ooooo",
"ooo XXXXXXXXXXXXXXXXXXXXXXXXXXXXXXXXXXXXXXXXXXXXXXXXXXXXX oooooo",
"oooo  XXXXXXXXXXXXXXXXXXXXXXXXXXXXXXXXXXXXXXXXXXXXXXXXXXX oooooo",
"ooooo  XXXXXXXXXXXXXXXXXXXXXXXXXXXXXXXXXXXXXXXXXXXXXXXXX ooooooo",
"ooooooo XXXXXXXXXXXXXXXXXXXXXXXXXXXXXXXXXXXXXXXXXXXXXXX oooooooo",
"oooooooo  XXXXXX X   XXXXXXXXXXXXXXXXXX      XXXXXXX  X oooooooo",
"ooooooo oo XXXX o ooo X   XXXX   XX    oooooo XXXXX oo o ooooooo",
"oooooo oooo    ooooooo ooo XX  oo  oo oooooooo X   oooooo oooooo",
"ooooo ooooooo ooooooooooooo   oooo oooooooooooo ooo oooooo ooooo",
"oooooooooooooooooooooooooooo oooooooooooooooooo oooooooooooooooo",
"oooooooooooooooooooooooooooooooooooooooooooooooooooooooooooooooo",
"oooooooooooooooooooooooooooooooooooooooooooooooooooooooooooooooo",
"oooooooooooooooooooooooooooooooooooooooooooooooooooooooooooooooo",
"oooooooooooooooooooooooooooooooooooooooooooooooooooooooooooooooo"
};
