/* XPM */
static char *result[] = {
/* columns rows colors chars-per-pixel */
"64 64 12 1 ",
"  c black",
". c #670807",
"X c #8A0A09",
"o c #C61514",
"O c #8E5D45",
"+ c #B3795F",
"@ c #F1A37F",
"# c #A48484",
"$ c #BDA3A3",
"% c #DCB1B1",
"& c #FFDBDB",
"* c None",
/* pixels */
"****************************************************************",
"****************************************************************",
"****************************************************************",
"****************************************************************",
"****************************************************************",
"****************************************************************",
"****************************************************************",
"****************************************************************",
"****************************************************************",
"****************************************************************",
"****************************************************************",
"**********************XXXXXXXXXXXXXXXXXX%%**********************",
"**********************XXXXXXXXXXXXXXXXXX%%**********************",
"******************XXXXoooooooooooooooooo&&%%%%******************",
"******************XXXXoooooooooooooooooo&&%%%%******************",
"****************..oo&&&&&&oooooooooooooo&&&&&&##****************",
"****************..oo&&&&&&oooooooooooooo&&&&&&##****************",
"**************..XX&&&&&&&&&&oooooooooooo&&&&&&$$##**************",
"**************..XX&&&&&&&&&&oooooooooooo&&&&&&$$##**************",
"************..XXoo&&&&&&&&&&oooooooooooo&&&&&&&&$$##************",
"************..XXoo&&&&&&&&&&oooooooooooo&&&&&&&&$$##************",
"************..oooo&&&&&&&&&&oooooooooooooo&&&&&&&&##************",
"************..oooo&&&&&&&&&&oooooooooooooo&&&&&&&&##************",
"**********..XXoooooo&&&&&&oooooooooooooooooo&&&&&&$$##**********",
"**********..XXoooooo&&&&&&oooooooooooooooooo&&&&&&$$##**********",
"**********..XXooooooooooooooooooooooooooooooooooooXX..**********",
"**********..XXooooooooooooooooooooooooooooooooooooXX..**********",
"**********..XXXXooooooooooooooooooooooooooooooooXXXX..**********",
"**********..XXXXooooooooooooooooooooooooooooooooXXXX..**********",
"**********..XX$$$$&&oooooooooo&&&&&&&&ooooooooXXXXXX..**********",
"**********..XX$$$$&&oooooooooo&&&&&&&&ooooooooXXXXXX..**********",
"**********##$$$$$$$$$$oooooo&&&&&&&&&&$$XXXXXXXXXXXX..**********",
"**********##$$$$$$$$$$oooooo&&&&&&&&&&$$XXXXXXXXXXXX..**********",
"************####$$$$$$XXXXXX$$$$$$$$$$$$XXXXXXXX....************",
"************####$$$$$$XXXXXX$$$$$$$$$$$$XXXXXXXX....************",
"****************######......############........****************",
"****************######......############........****************",
"********************OO++++++++++++++++++++OO********************",
"********************OO++++++++++++++++++++OO********************",
"********************++@@@@@@@@@@@  @@@  @@++********************",
"********************++@@@@@@@@@@@  @@@  @@++********************",
"********************++@@@@@@@@@@@  @@@  @@++********************",
"********************++@@@@@@@@@@@  @@@  @@++********************",
"********************++@@@@@@@@@@@@@@@@@@@@++********************",
"********************++@@@@@@@@@@@@@@@@@@@@++********************",
"********************++@@@@@@@@@@@@@@@@@@@@++********************",
"********************++@@@@@@@@@@@@@@@@@@@@++********************",
"********************OO++@@@@@@@@@@@@@@@@++OO********************",
"********************OO++@@@@@@@@@@@@@@@@++OO********************",
"**********************OO++++++++++++++++OO**********************",
"**********************OO++++++++++++++++OO**********************",
"************************OOOOOOOOOOOOOOOO************************",
"************************OOOOOOOOOOOOOOOO************************",
"****************************************************************",
"****************************************************************",
"****************************************************************",
"****************************************************************",
"****************************************************************",
"****************************************************************",
"****************************************************************",
"****************************************************************",
"****************************************************************",
"****************************************************************",
"****************************************************************"
};
