/* XPM */
static char *_295b4e9cd974b7ed1fd4ff00e2b75d61Qbln4xAkrSjiWTJ[] = {
/* columns rows colors chars-per-pixel */
"64 64 6 1 ",
"  c None",
". c black",
"X c #3E8948",
"o c #63C74D",
"O c #EAD4AA",
"+ c white",
/* pixels */
"                                                                ",
"                                                                ",
"        oooooooooooooooooooooooooooooooooooooooooooooooo        ",
"        oooooooooooooooooooooooooooooooooooooooooooooooo        ",
"        oooooooooooooooooooooooooooooooooooooooooooooooo        ",
"     oooXXXoooXXXXXXXXXXXXXXXXXXXXXXXXXXXXXXXXXXXXooooooooo     ",
"     oooXXXoooXXXXXXXXXXXXXXXXXXXXXXXXXXXXXXXXXXXXooooooooo     ",
"     oooXXXoooXXXXXXXXXXXXXXXXXXXXXXXXXXXXXXXXXXXXooooooooo     ",
"  oooXXXoooXXXXXXooooooooooooooooooooooooooooooXXXXXXooooooooo  ",
"  oooXXXoooXXXXXXooooooooooooooooooooooooooooooXXXXXXooooooooo  ",
"  oooXXXoooXXXXXXooooooooooooooooooooooooooooooXXXXXXooooooooo  ",
"  oooXXXoooXXXooooooXXXXXXXXXXXXXXXXXXXXXXXXooooooXXXoooXXXooo  ",
"  oooXXXoooXXXooooooXXXXXXXXXXXXXXXXXXXXXXXXooooooXXXoooXXXooo  ",
"  oooXXXoooXXXooooooXXXXXXXXXXXXXXXXXXXXXXXXooooooXXXoooXXXooo  ",
"  oooXXXoooXXXoooXXXXXXOOOOOOOOOOOOOOOOOOXXXXXXoooXXXoooXXXooo  ",
"  oooXXXoooXXXoooXXXXXXOOOOOOOOOOOOOOOOOOXXXXXXoooXXXoooXXXooo  ",
"  oooXXXoooXXXoooXXXXXXOOOOOOOOOOOOOOOOOOXXXXXXoooXXXoooXXXooo  ",
"  oooXXXoooXXXoooXXXOOOOOOOOOOOOOOOOOOOOOOOOXXXooooooooooooooo  ",
"  oooXXXoooXXXoooXXXOOOOOOOOOOOOOOOOOOOOOOOOXXXooooooooooooooo  ",
"  oooXXXoooXXXoooXXXOOOOOOOOOOOOOOOOOOOOOOOOXXXooooooooooooooo  ",
"  oooXXXoooXXXoooXXXOOOOOOOOOOOOOOOOOOOOOOOOXXXooooooooooooooo  ",
"  oooXXXoooXXXoooXXXOOOOOOOOOOOOOOOOOOOOOOOOXXXooooooooooooooo  ",
"  oooXXXoooXXXoooXXXOOOOOOOOOOOOOOOOOOOOOOOOXXXooooooooooooooo  ",
"  oooXXXoooooooooooooooooooooooooooOOOOOOOOOoooXXXXXXXXXXXXXXX  ",
"  oooXXXooooooooooooooooooooooooooo++++OOOOOoooXXXXXXXXXXXXXXX  ",
"  oooXXXooooooooooooooooooooooooooo..++OOOOOoooXXXXXXXXXXXXXXX  ",
"  ooooooXXXXXXXXXXXXXXXXXXXXXXXXXXXoooooooooXXXXXXXXXXXXXXXXXX  ",
"  ooooooXXXXXXXXXXXXXXXXXXXXXXXXXXXoooooooooXXXXXXXXXXXXXXXXXX  ",
"  ooooooXXXXXXXXXXXXoooXXXXXXXXXXXXoooooooooXXXXXXXXXXXXXXXXXX  ",
"  oooXXXXXXXXXXXXXXXoooXXXXXXXXXXXXXXXXXXoooXXXXXXXXXoooXXXXXX  ",
"  oooXXXXXXXXXXXXXXXoooXXXXXXXXXXXXXXXXXXoooXXXXXXXXXoooXXXXXX  ",
"  oooXXXXXXXXXXXXXXXoooXXXXXXXXXXXXXXXXXXoooXXXXXXXXXoooXXXXXX  ",
"  XXXXXXoooXXXoooXXXoooXXXoooXXXXXXXXXXXXoooXXXXXXXXXoooXXXooo  ",
"  XXXXXXoooXXXoooXXXoooXXXoooXXXXXXXXXXXXoooXXXXXXXXXoooXXXooo  ",
"  XXXXXXoooXXXoooXXXoooXXXoooXXXXXXXXXXXXoooXXXXXXXXXoooXXXooo  ",
"  XXXooooooXXXoooXXXoooXXXoooXXXXXXXXXXXXoooXXXoooXXXoooXXXooo  ",
"  XXXooooooXXXoooXXXoooXXXoooXXXXXXXXXXXXoooXXXoooXXXoooXXXooo  ",
"  XXXooooooXXXoooXXXoooXXXoooXXXXXXXXXXXXoooXXXoooXXXoooXXXooo  ",
"  XXXXXXoooXXXoooXXXoooXXXoooXXXoooXXXXXXoooXXXXXXXXXoooXXXooo  ",
"  XXXXXXoooXXXoooXXXoooXXXoooXXXoooXXXXXXoooXXXXXXXXXoooXXXooo  ",
"  XXXXXXoooXXXoooXXXoooXXXoooXXXoooXXXXXXoooXXXXXXXXXoooXXXooo  ",
"  XXXooooooXXXoooXXXoooXXXoooXXXooooooXXXoooXXXoooXXXooooooooo  ",
"  XXXooooooXXXoooXXXoooXXXoooXXXooooooXXXoooXXXoooXXXooooooooo  ",
"  XXXooooooXXXoooXXXoooXXXoooXXXooooooXXXoooXXXoooXXXooooooooo  ",
"  XXXXXXoooXXXoooXXXoooooooooXXXoooXXXXXXoooXXXoooXXXoooXXXXXX  ",
"  XXXXXXoooXXXoooXXXoooooooooXXXoooXXXXXXoooXXXoooXXXoooXXXXXX  ",
"  XXXXXXoooXXXoooXXXoooooooooXXXoooXXXXXXoooXXXoooXXXoooXXXXXX  ",
"  XXXXXXoooXXXoooXXXoooXXXXXXXXXoooXXXXXXoooXXXooooooooooooXXX  ",
"  XXXXXXoooXXXoooXXXoooXXXXXXXXXoooXXXXXXoooXXXooooooooooooXXX  ",
"  XXXXXXoooXXXoooXXXoooXXXXXXXXXoooXXXXXXoooXXXooooooooooooXXX  ",
"  XXXXXXoooooooooXXXoooooooooooooooXXXXXXoooXXXXXXXXXoooXXXXXX  ",
"  XXXXXXoooooooooXXXoooooooooooooooXXXXXXoooXXXXXXXXXoooXXXXXX  ",
"  XXXXXXoooooooooXXXoooooooooooooooXXXXXXoooXXXXXXXXXoooXXXXXX  ",
"  XXXXXXXXXXXXooooooooooooXXXXXXXXXXXXXXXoooXXXXXXXXXoooXXXXXX  ",
"  XXXXXXXXXXXXooooooooooooXXXXXXXXXXXXXXXoooXXXXXXXXXoooXXXXXX  ",
"  XXXXXXXXXXXXooooooooooooXXXXXXXXXXXXXXXoooXXXXXXXXXoooXXXXXX  ",
"     XXXXXXXXXXXXXXXXXXoooXXXXXXXXXXXXXXXoooXXXXXXXXXXXXXXX     ",
"     XXXXXXXXXXXXXXXXXXoooXXXXXXXXXXXXXXXoooXXXXXXXXXXXXXXX     ",
"     XXXXXXXXXXXXXXXXXXoooXXXXXXXXXXXXXXXoooXXXXXXXXXXXXXXX     ",
"           XXXXXXXXXXXXXXXXXXXXXXXXXXXXXXXXXXXXXXXXXX           ",
"           XXXXXXXXXXXXXXXXXXXXXXXXXXXXXXXXXXXXXXXXXX           ",
"           XXXXXXXXXXXXXXXXXXXXXXXXXXXXXXXXXXXXXXXXXX           ",
"                                                                ",
"                                                                "
};
