/* XPM */
static char *result[] = {
/* columns rows colors chars-per-pixel */
"64 64 4 1 ",
"  c #386900",
". c #51A200",
"X c #9AEB00",
"o c None",
/* pixels */
"oooooooooooooooooooooooooooooooooooooooooooooooooooooooooooooooo",
"oooooooooooooooooooooooooooooooooooooooooooooooooooooooooooooooo",
"oooooooooooooooooooooooooooooooooooooooooooooooooooooooooooooooo",
"oooooooooooooooooooooooooooooooooooooooooooooooooooooooooooooooo",
"oooooooooooooooooooooooooooooooooooooooooooooooooooooooooooooooo",
"oooooooooooooooooooooooooooooooooooooooooooooooooooooooooooooooo",
"oooooooooooooooooooooooooooooooooooooooooooooooooooooooooooooooo",
"oooooooooooooooooooooooooooooooooooooooooooooooooooooooooooooooo",
"oooooooooooooooooooooooooooooooooooooooooooooooooooooooooooooooo",
"oooooooooooooooooooooooooooooooooooooooooooooooooooooooooooooooo",
"oooooooooooooooooooooooooooooooooooooooooooooooooooooooooooooooo",
"oooooooooooooooooooooooooooooooooooooooooooooooooooooooooooooooo",
"oooooooooooooooooooooooooooooooooooooooooooooooooooooooooooooooo",
"oooooooooooooooooooooooooooooooooooooooooooooooooooooooooooooooo",
"oooooooooooooooooooooooooo            oooooooooooooooooooooooooo",
"oooooooooooooooooooooooooo            oooooooooooooooooooooooooo",
"oooooooooooooooooooooooooo            oooooooooooooooooooooooooo",
"ooooooooooooooooo...                        oooooooooooooooooooo",
"ooooooooooooooooo...                        oooooooooooooooooooo",
"ooooooooooooooooo...                        oooooooooooooooooooo",
"oooooooooooooo...            ...............   ooooooooooooooooo",
"oooooooooooooo...            ...............   ooooooooooooooooo",
"oooooooooooooo...            ...............   ooooooooooooooooo",
"ooooooooooo......         ......XXX...............oooooooooooooo",
"ooooooooooo......         ......XXX...............oooooooooooooo",
"ooooooooooo......         ......XXX...............oooooooooooooo",
"ooooooooooo...         ......XXX.....................ooooooooooo",
"ooooooooooo...         ......XXX.....................ooooooooooo",
"ooooooooooo...         ......XXX.....................ooooooooooo",
"ooooooooooo...      .........XXXXXX..................ooooooooooo",
"ooooooooooo...      .........XXXXXX..................ooooooooooo",
"ooooooooooo...      .........XXXXXX..................ooooooooooo",
"ooooooooooo...............XXXXXXXXX.........      ...ooooooooooo",
"ooooooooooo...............XXXXXXXXX.........      ...ooooooooooo",
"ooooooooooo...............XXXXXXXXX.........      ...ooooooooooo",
"ooooooooooo.........XXXXXXXXXXXX.........         ...ooooooooooo",
"ooooooooooo.........XXXXXXXXXXXX.........         ...ooooooooooo",
"ooooooooooo.........XXXXXXXXXXXX.........         ...ooooooooooo",
"oooooooooooooo........................         ......ooooooooooo",
"oooooooooooooo........................         ......ooooooooooo",
"oooooooooooooo........................         ......ooooooooooo",
"ooooooooooooooooo   ...............            ...oooooooooooooo",
"ooooooooooooooooo   ...............            ...oooooooooooooo",
"ooooooooooooooooo   ...............            ...oooooooooooooo",
"oooooooooooooooooooo                        ...ooooooooooooooooo",
"oooooooooooooooooooo                        ...ooooooooooooooooo",
"oooooooooooooooooooo                        ...ooooooooooooooooo",
"oooooooooooooooooooooooooo            oooooooooooooooooooooooooo",
"oooooooooooooooooooooooooo            oooooooooooooooooooooooooo",
"oooooooooooooooooooooooooo            oooooooooooooooooooooooooo",
"oooooooooooooooooooooooooooooooooooooooooooooooooooooooooooooooo",
"oooooooooooooooooooooooooooooooooooooooooooooooooooooooooooooooo",
"oooooooooooooooooooooooooooooooooooooooooooooooooooooooooooooooo",
"oooooooooooooooooooooooooooooooooooooooooooooooooooooooooooooooo",
"oooooooooooooooooooooooooooooooooooooooooooooooooooooooooooooooo",
"oooooooooooooooooooooooooooooooooooooooooooooooooooooooooooooooo",
"oooooooooooooooooooooooooooooooooooooooooooooooooooooooooooooooo",
"oooooooooooooooooooooooooooooooooooooooooooooooooooooooooooooooo",
"oooooooooooooooooooooooooooooooooooooooooooooooooooooooooooooooo",
"oooooooooooooooooooooooooooooooooooooooooooooooooooooooooooooooo",
"oooooooooooooooooooooooooooooooooooooooooooooooooooooooooooooooo",
"oooooooooooooooooooooooooooooooooooooooooooooooooooooooooooooooo",
"oooooooooooooooooooooooooooooooooooooooooooooooooooooooooooooooo",
"oooooooooooooooooooooooooooooooooooooooooooooooooooooooooooooooo"
};
