/* XPM */
static char *result[] = {
/* columns rows colors chars-per-pixel */
"64 64 4 1 ",
"  c #386900",
". c #51A200",
"X c #9AEB00",
"o c None",
/* pixels */
"oooooooooooooooooooooooooooooooooooooooooooooooooooooooooooooooo",
"oooooooooooooooooooooooooooooooooooooooooooooooooooooooooooooooo",
"oooooooooooooooooooooooooooooooooooooooooooooooooooooooooooooooo",
"oooooooooooooooooooooooooooooooooooooooooooooooooooooooooooooooo",
"oooooooooooooooooooooooooooooooooooooooooooooooooooooooooooooooo",
"oooooooooooooooooooooooooooooooooooooooooooooooooooooooooooooooo",
"oooooooooooooooooooooooooooooooooooooooooooooooooooooooooooooooo",
"oooooooooooooooooooooooooooooooooooooooooooooooooooooooooooooooo",
"oooooooooooooooooooooooooooooooooooooooooooooooooooooooooooooooo",
"oooooooooooooooooooooooooooooooooooooooooooooooooooooooooooooooo",
"oooooooooooooooooooooooooooooooooooooooooooooooooooooooooooooooo",
"oooooooooooooooooooo   ............      ooooooooooooooooooooooo",
"oooooooooooooooooooo   ............      ooooooooooooooooooooooo",
"oooooooooooooooooooo   ............      ooooooooooooooooooooooo",
"ooooooooooooooooooooXXXXXXXXXXXX............oooooooooooooooooooo",
"ooooooooooooooooooooXXXXXXXXXXXX............oooooooooooooooooooo",
"ooooooooooooooooooooXXXXXXXXXXXX............oooooooooooooooooooo",
"ooooooooooooooooooooXXXXXX......         ......ooooooooooooooooo",
"ooooooooooooooooooooXXXXXX......         ......ooooooooooooooooo",
"ooooooooooooooooooooXXXXXX......         ......ooooooooooooooooo",
"ooooooooooooooooo                           ...   oooooooooooooo",
"ooooooooooooooooo                           ...   oooooooooooooo",
"ooooooooooooooooo                           ...   oooooooooooooo",
"ooooooooooooooooo                              ...oooooooooooooo",
"ooooooooooooooooo                              ...oooooooooooooo",
"ooooooooooooooooo                              ...oooooooooooooo",
"oooooooooooooo                                 ...oooooooooooooo",
"oooooooooooooo                                 ...oooooooooooooo",
"oooooooooooooo                                 ...oooooooooooooo",
"oooooooooooooo                                    oooooooooooooo",
"oooooooooooooo                                    oooooooooooooo",
"oooooooooooooo                                    oooooooooooooo",
"oooooooooooooo                                    oooooooooooooo",
"oooooooooooooo                                    oooooooooooooo",
"oooooooooooooo                                    oooooooooooooo",
"oooooooooooooo                                    oooooooooooooo",
"oooooooooooooo                                    oooooooooooooo",
"oooooooooooooo                                    oooooooooooooo",
"oooooooooooooo...                              ooooooooooooooooo",
"oooooooooooooo...                              ooooooooooooooooo",
"oooooooooooooo...                              ooooooooooooooooo",
"oooooooooooooo   ...                           ooooooooooooooooo",
"oooooooooooooo   ...                           ooooooooooooooooo",
"oooooooooooooo   ...                           ooooooooooooooooo",
"ooooooooooooooooo......         ......XXXXXXoooooooooooooooooooo",
"ooooooooooooooooo......         ......XXXXXXoooooooooooooooooooo",
"ooooooooooooooooo......         ......XXXXXXoooooooooooooooooooo",
"oooooooooooooooooooo............XXXXXXXXXXXXoooooooooooooooooooo",
"oooooooooooooooooooo............XXXXXXXXXXXXoooooooooooooooooooo",
"oooooooooooooooooooo............XXXXXXXXXXXXoooooooooooooooooooo",
"ooooooooooooooooooooooo      ............   oooooooooooooooooooo",
"ooooooooooooooooooooooo      ............   oooooooooooooooooooo",
"ooooooooooooooooooooooo      ............   oooooooooooooooooooo",
"oooooooooooooooooooooooooooooooooooooooooooooooooooooooooooooooo",
"oooooooooooooooooooooooooooooooooooooooooooooooooooooooooooooooo",
"oooooooooooooooooooooooooooooooooooooooooooooooooooooooooooooooo",
"oooooooooooooooooooooooooooooooooooooooooooooooooooooooooooooooo",
"oooooooooooooooooooooooooooooooooooooooooooooooooooooooooooooooo",
"oooooooooooooooooooooooooooooooooooooooooooooooooooooooooooooooo",
"oooooooooooooooooooooooooooooooooooooooooooooooooooooooooooooooo",
"oooooooooooooooooooooooooooooooooooooooooooooooooooooooooooooooo",
"oooooooooooooooooooooooooooooooooooooooooooooooooooooooooooooooo",
"oooooooooooooooooooooooooooooooooooooooooooooooooooooooooooooooo",
"oooooooooooooooooooooooooooooooooooooooooooooooooooooooooooooooo"
};
