/* XPM */
static char *result[] = {
/* columns rows colors chars-per-pixel */
"64 64 4 1 ",
"  c #386900",
". c #51A200",
"X c #9AEB00",
"o c None",
/* pixels */
"oooooooooooooooooooooooooooooooooooooooooooooooooooooooooooooooo",
"oooooooooooooooooooooooooooooooooooooooooooooooooooooooooooooooo",
"oooooooooooooooooooooooooooooooooooooooooooooooooooooooooooooooo",
"oooooooooooooooooooooooooooooooooooooooooooooooooooooooooooooooo",
"oooooooooooooooooooooooooooooooooooooooooooooooooooooooooooooooo",
"oooooooooooooooooooooooooooooooooooooooooooooooooooooooooooooooo",
"oooooooooooooooooooooooooooooooooooooooooooooooooooooooooooooooo",
"oooooooooooooooooooooooooooooooooooooooooooooooooooooooooooooooo",
"oooooooooooooooooooooooooooooooooooooooooooooooooooooooooooooooo",
"oooooooooooooooooooooooooooooooooooooooooooooooooooooooooooooooo",
"oooooooooooooooooooooooooooooooooooooooooooooooooooooooooooooooo",
"oooooooooooooooooooooooooooooooooooooooooooooooooooooooooooooooo",
"oooooooooooooooooooooooooooooooooooooooooooooooooooooooooooooooo",
"oooooooooooooooooooooooooooooooooooooooooooooooooooooooooooooooo",
"oooooooooooooooooooooooooo            oooooooooooooooooooooooooo",
"oooooooooooooooooooooooooo            oooooooooooooooooooooooooo",
"oooooooooooooooooooooooooo            oooooooooooooooooooooooooo",
"oooooooooooooooooooo                  XXXXXXoooooooooooooooooooo",
"oooooooooooooooooooo                  XXXXXXoooooooooooooooooooo",
"oooooooooooooooooooo                  XXXXXXoooooooooooooooooooo",
"ooooooooooooooooo                     ...XXXXXXooooooooooooooooo",
"ooooooooooooooooo                     ...XXXXXXooooooooooooooooo",
"ooooooooooooooooo                     ...XXXXXXooooooooooooooooo",
"ooooooooooooooooo               XXX...      ...ooooooooooooooooo",
"ooooooooooooooooo               XXX...      ...ooooooooooooooooo",
"ooooooooooooooooo               XXX...      ...ooooooooooooooooo",
"oooooooooooooo               XXX...            ...oooooooooooooo",
"oooooooooooooo               XXX...            ...oooooooooooooo",
"oooooooooooooo               XXX...            ...oooooooooooooo",
"oooooooooooooo...            XXX...            ...oooooooooooooo",
"oooooooooooooo...            XXX...            ...oooooooooooooo",
"oooooooooooooo...            XXX...            ...oooooooooooooo",
"oooooooooooooo...            XXX...            ...oooooooooooooo",
"oooooooooooooo...            XXX...            ...oooooooooooooo",
"oooooooooooooo...            XXX...            ...oooooooooooooo",
"oooooooooooooo...               XXX...            oooooooooooooo",
"oooooooooooooo...               XXX...            oooooooooooooo",
"oooooooooooooo...               XXX...            oooooooooooooo",
"ooooooooooooooooo...               ...         ooooooooooooooooo",
"ooooooooooooooooo...               ...         ooooooooooooooooo",
"ooooooooooooooooo...               ...         ooooooooooooooooo",
"oooooooooooooooooXXXXXX...      ...            ooooooooooooooooo",
"oooooooooooooooooXXXXXX...      ...            ooooooooooooooooo",
"oooooooooooooooooXXXXXX...      ...            ooooooooooooooooo",
"ooooooooooooooooooooXXXXXX......            oooooooooooooooooooo",
"ooooooooooooooooooooXXXXXX......            oooooooooooooooooooo",
"ooooooooooooooooooooXXXXXX......            oooooooooooooooooooo",
"oooooooooooooooooooooooooo            oooooooooooooooooooooooooo",
"oooooooooooooooooooooooooo            oooooooooooooooooooooooooo",
"oooooooooooooooooooooooooo            oooooooooooooooooooooooooo",
"oooooooooooooooooooooooooooooooooooooooooooooooooooooooooooooooo",
"oooooooooooooooooooooooooooooooooooooooooooooooooooooooooooooooo",
"oooooooooooooooooooooooooooooooooooooooooooooooooooooooooooooooo",
"oooooooooooooooooooooooooooooooooooooooooooooooooooooooooooooooo",
"oooooooooooooooooooooooooooooooooooooooooooooooooooooooooooooooo",
"oooooooooooooooooooooooooooooooooooooooooooooooooooooooooooooooo",
"oooooooooooooooooooooooooooooooooooooooooooooooooooooooooooooooo",
"oooooooooooooooooooooooooooooooooooooooooooooooooooooooooooooooo",
"oooooooooooooooooooooooooooooooooooooooooooooooooooooooooooooooo",
"oooooooooooooooooooooooooooooooooooooooooooooooooooooooooooooooo",
"oooooooooooooooooooooooooooooooooooooooooooooooooooooooooooooooo",
"oooooooooooooooooooooooooooooooooooooooooooooooooooooooooooooooo",
"oooooooooooooooooooooooooooooooooooooooooooooooooooooooooooooooo",
"oooooooooooooooooooooooooooooooooooooooooooooooooooooooooooooooo"
};
