/* XPM */
static char *result[] = {
/* columns rows colors chars-per-pixel */
"64 64 3 1 ",
"  c #51A200",
". c #9AEB00",
"X c None",
/* pixels */
"XXXXXXXXXXXXXXXXXXXXXXXXXXXXXXXXXXXXXXXXXXXXXXXXXXXXXXXXXXXXXXXX",
"XXXXXXXXXXXXXXXXXXXXXXXXXXXXXXXXXXXXXXXXXXXXXXXXXXXXXXXXXXXXXXXX",
"XXXXXXXXXXXXXXXXXXXXXXXXXXXXXXXXXXXXXXXXXXXXXXXXXXXXXXXXXXXXXXXX",
"XXXXXXXXXXXXXXXXXXXXXXXXXXXXXXXXXXXXXXXXXXXXXXXXXXXXXXXXXXXXXXXX",
"XXXXXXXXXXXXXXXXXXXXXXXXXXXXXXXXXXXXXXXXXXXXXXXXXXXXXXXXXXXXXXXX",
"XXXXXXXXXXXXXXXXXXXXXXXXXXXXXXXXXXXXXXXXXXXXXXXXXXXXXXXXXXXXXXXX",
"XXXXXXXXXXXXXXXXXXXXXXXXXXXXXXXXXXXXXXXXXXXXXXXXXXXXXXXXXXXXXXXX",
"XXXXXXXXXXXXXXXXXXXXXXXXXXXXXXXXXXXXXXXXXXXXXXXXXXXXXXXXXXXXXXXX",
"XXXXXXXXXXXXXXXXXXXXXXXXXXXXXXXXXXXXXXXXXXXXXXXXXXXXXXXXXXXXXXXX",
"XXXXXXXXXXXXXXXXXXXXXXXXXXXXXXXXXXXXXXXXXXXXXXXXXXXXXXXXXXXXXXXX",
"XXXXXXXXXXXXXXXXXXXXXXXXXXXXXXXXXXXXXXXXXXXXXXXXXXXXXXXXXXXXXXXX",
"XXXXXXXXXXXXXXXXXXXXXXXXXXXXXXXXXXXXXXXXXXXXXXXXXXXXXXXXXXXXXXXX",
"XXXXXXXXXXXXXXXXXXXXXXXXXXXXXXXXXXXXXXXXXXXXXXXXXXXXXXXXXXXXXXXX",
"XXXXXXXXXXXXXXXXXXXXXXXXXXXXXXXXXXXXXXXXXXXXXXXXXXXXXXXXXXXXXXXX",
"XXXXXXXXXXXXXXXXXXXXXXXXXX            XXXXXXXXXXXXXXXXXXXXXXXXXX",
"XXXXXXXXXXXXXXXXXXXXXXXXXX            XXXXXXXXXXXXXXXXXXXXXXXXXX",
"XXXXXXXXXXXXXXXXXXXXXXXXXX            XXXXXXXXXXXXXXXXXXXXXXXXXX",
"XXXXXXXXXXXXXXXXXXXX...                     XXXXXXXXXXXXXXXXXXXX",
"XXXXXXXXXXXXXXXXXXXX...                     XXXXXXXXXXXXXXXXXXXX",
"XXXXXXXXXXXXXXXXXXXX...                     XXXXXXXXXXXXXXXXXXXX",
"XXXXXXXXXXXXXXXXX...                           XXXXXXXXXXXXXXXXX",
"XXXXXXXXXXXXXXXXX...                           XXXXXXXXXXXXXXXXX",
"XXXXXXXXXXXXXXXXX...                           XXXXXXXXXXXXXXXXX",
"XXXXXXXXXXXXXXXXX...               ...         XXXXXXXXXXXXXXXXX",
"XXXXXXXXXXXXXXXXX...               ...         XXXXXXXXXXXXXXXXX",
"XXXXXXXXXXXXXXXXX...               ...         XXXXXXXXXXXXXXXXX",
"XXXXXXXXXXXXXX......         ............      ...XXXXXXXXXXXXXX",
"XXXXXXXXXXXXXX......         ............      ...XXXXXXXXXXXXXX",
"XXXXXXXXXXXXXX......         ............      ...XXXXXXXXXXXXXX",
"XXXXXXXXXXXXXX......      .........      .........XXXXXXXXXXXXXX",
"XXXXXXXXXXXXXX......      .........      .........XXXXXXXXXXXXXX",
"XXXXXXXXXXXXXX......      .........      .........XXXXXXXXXXXXXX",
"XXXXXXXXXXXXXX......      ......         .........XXXXXXXXXXXXXX",
"XXXXXXXXXXXXXX......      ......         .........XXXXXXXXXXXXXX",
"XXXXXXXXXXXXXX......      ......         .........XXXXXXXXXXXXXX",
"XXXXXXXXXXXXXX...   ...   ...               ......XXXXXXXXXXXXXX",
"XXXXXXXXXXXXXX...   ...   ...               ......XXXXXXXXXXXXXX",
"XXXXXXXXXXXXXX...   ...   ...               ......XXXXXXXXXXXXXX",
"XXXXXXXXXXXXXXXXX      ...                  ...XXXXXXXXXXXXXXXXX",
"XXXXXXXXXXXXXXXXX      ...                  ...XXXXXXXXXXXXXXXXX",
"XXXXXXXXXXXXXXXXX      ...                  ...XXXXXXXXXXXXXXXXX",
"XXXXXXXXXXXXXXXXX                           ...XXXXXXXXXXXXXXXXX",
"XXXXXXXXXXXXXXXXX                           ...XXXXXXXXXXXXXXXXX",
"XXXXXXXXXXXXXXXXX                           ...XXXXXXXXXXXXXXXXX",
"XXXXXXXXXXXXXXXXXXXX                     ...XXXXXXXXXXXXXXXXXXXX",
"XXXXXXXXXXXXXXXXXXXX                     ...XXXXXXXXXXXXXXXXXXXX",
"XXXXXXXXXXXXXXXXXXXX                     ...XXXXXXXXXXXXXXXXXXXX",
"XXXXXXXXXXXXXXXXXXXXXXXXXX            XXXXXXXXXXXXXXXXXXXXXXXXXX",
"XXXXXXXXXXXXXXXXXXXXXXXXXX            XXXXXXXXXXXXXXXXXXXXXXXXXX",
"XXXXXXXXXXXXXXXXXXXXXXXXXX            XXXXXXXXXXXXXXXXXXXXXXXXXX",
"XXXXXXXXXXXXXXXXXXXXXXXXXXXXXXXXXXXXXXXXXXXXXXXXXXXXXXXXXXXXXXXX",
"XXXXXXXXXXXXXXXXXXXXXXXXXXXXXXXXXXXXXXXXXXXXXXXXXXXXXXXXXXXXXXXX",
"XXXXXXXXXXXXXXXXXXXXXXXXXXXXXXXXXXXXXXXXXXXXXXXXXXXXXXXXXXXXXXXX",
"XXXXXXXXXXXXXXXXXXXXXXXXXXXXXXXXXXXXXXXXXXXXXXXXXXXXXXXXXXXXXXXX",
"XXXXXXXXXXXXXXXXXXXXXXXXXXXXXXXXXXXXXXXXXXXXXXXXXXXXXXXXXXXXXXXX",
"XXXXXXXXXXXXXXXXXXXXXXXXXXXXXXXXXXXXXXXXXXXXXXXXXXXXXXXXXXXXXXXX",
"XXXXXXXXXXXXXXXXXXXXXXXXXXXXXXXXXXXXXXXXXXXXXXXXXXXXXXXXXXXXXXXX",
"XXXXXXXXXXXXXXXXXXXXXXXXXXXXXXXXXXXXXXXXXXXXXXXXXXXXXXXXXXXXXXXX",
"XXXXXXXXXXXXXXXXXXXXXXXXXXXXXXXXXXXXXXXXXXXXXXXXXXXXXXXXXXXXXXXX",
"XXXXXXXXXXXXXXXXXXXXXXXXXXXXXXXXXXXXXXXXXXXXXXXXXXXXXXXXXXXXXXXX",
"XXXXXXXXXXXXXXXXXXXXXXXXXXXXXXXXXXXXXXXXXXXXXXXXXXXXXXXXXXXXXXXX",
"XXXXXXXXXXXXXXXXXXXXXXXXXXXXXXXXXXXXXXXXXXXXXXXXXXXXXXXXXXXXXXXX",
"XXXXXXXXXXXXXXXXXXXXXXXXXXXXXXXXXXXXXXXXXXXXXXXXXXXXXXXXXXXXXXXX",
"XXXXXXXXXXXXXXXXXXXXXXXXXXXXXXXXXXXXXXXXXXXXXXXXXXXXXXXXXXXXXXXX"
};
