/* XPM */
static char *result[] = {
/* columns rows colors chars-per-pixel */
"64 64 4 1 ",
"  c #386900",
". c #51A200",
"X c #9AEB00",
"o c None",
/* pixels */
"oooooooooooooooooooooooooooooooooooooooooooooooooooooooooooooooo",
"oooooooooooooooooooooooooooooooooooooooooooooooooooooooooooooooo",
"oooooooooooooooooooooooooooooooooooooooooooooooooooooooooooooooo",
"oooooooooooooooooooooooooooooooooooooooooooooooooooooooooooooooo",
"oooooooooooooooooooooooooooooooooooooooooooooooooooooooooooooooo",
"oooooooooooooooooooooooooooooooooooooooooooooooooooooooooooooooo",
"oooooooooooooooooooooooooooooooooooooooooooooooooooooooooooooooo",
"oooooooooooooooooooooooooooooooooooooooooooooooooooooooooooooooo",
"oooooooooooooooooooooooooooooooooooooooooooooooooooooooooooooooo",
"oooooooooooooooooooooooooooooooooooooooooooooooooooooooooooooooo",
"oooooooooooooooooooooooooooooooooooooooooooooooooooooooooooooooo",
"ooooooooooooooooooooooo            ooooooooooooooooooooooooooooo",
"ooooooooooooooooooooooo            ooooooooooooooooooooooooooooo",
"ooooooooooooooooooooooo            ooooooooooooooooooooooooooooo",
"ooooooooooooooooo.....................   ooooooooooooooooooooooo",
"ooooooooooooooooo.....................   ooooooooooooooooooooooo",
"ooooooooooooooooo.....................   ooooooooooooooooooooooo",
"oooooooooooooo...XXXXXX...            ...   oooooooooooooooooooo",
"oooooooooooooo...XXXXXX...            ...   oooooooooooooooooooo",
"oooooooooooooo...XXXXXX...            ...   oooooooooooooooooooo",
"ooooooooooooooXXXXXX...                        ooooooooooooooooo",
"ooooooooooooooXXXXXX...                        ooooooooooooooooo",
"ooooooooooooooXXXXXX...                        ooooooooooooooooo",
"ooooooooooooooXXX...                           ooooooooooooooooo",
"ooooooooooooooXXX...                           ooooooooooooooooo",
"ooooooooooooooXXX...                           ooooooooooooooooo",
"oooooooooooooo                                    oooooooooooooo",
"oooooooooooooo                                    oooooooooooooo",
"oooooooooooooo                                    oooooooooooooo",
"oooooooooooooo                                    oooooooooooooo",
"oooooooooooooo                                    oooooooooooooo",
"oooooooooooooo                                    oooooooooooooo",
"oooooooooooooo                                    oooooooooooooo",
"oooooooooooooo                                    oooooooooooooo",
"oooooooooooooo                                    oooooooooooooo",
"oooooooooooooo                                    oooooooooooooo",
"oooooooooooooo                                    oooooooooooooo",
"oooooooooooooo                                    oooooooooooooo",
"ooooooooooooooooo                           ...XXXoooooooooooooo",
"ooooooooooooooooo                           ...XXXoooooooooooooo",
"ooooooooooooooooo                           ...XXXoooooooooooooo",
"ooooooooooooooooo                        ...XXXXXXoooooooooooooo",
"ooooooooooooooooo                        ...XXXXXXoooooooooooooo",
"ooooooooooooooooo                        ...XXXXXXoooooooooooooo",
"oooooooooooooooooooo   ...            ...XXXXXX...oooooooooooooo",
"oooooooooooooooooooo   ...            ...XXXXXX...oooooooooooooo",
"oooooooooooooooooooo   ...            ...XXXXXX...oooooooooooooo",
"ooooooooooooooooooooooo   ..................   ooooooooooooooooo",
"ooooooooooooooooooooooo   ..................   ooooooooooooooooo",
"ooooooooooooooooooooooo   ..................   ooooooooooooooooo",
"ooooooooooooooooooooooooooooo            ooooooooooooooooooooooo",
"ooooooooooooooooooooooooooooo            ooooooooooooooooooooooo",
"ooooooooooooooooooooooooooooo            ooooooooooooooooooooooo",
"oooooooooooooooooooooooooooooooooooooooooooooooooooooooooooooooo",
"oooooooooooooooooooooooooooooooooooooooooooooooooooooooooooooooo",
"oooooooooooooooooooooooooooooooooooooooooooooooooooooooooooooooo",
"oooooooooooooooooooooooooooooooooooooooooooooooooooooooooooooooo",
"oooooooooooooooooooooooooooooooooooooooooooooooooooooooooooooooo",
"oooooooooooooooooooooooooooooooooooooooooooooooooooooooooooooooo",
"oooooooooooooooooooooooooooooooooooooooooooooooooooooooooooooooo",
"oooooooooooooooooooooooooooooooooooooooooooooooooooooooooooooooo",
"oooooooooooooooooooooooooooooooooooooooooooooooooooooooooooooooo",
"oooooooooooooooooooooooooooooooooooooooooooooooooooooooooooooooo",
"oooooooooooooooooooooooooooooooooooooooooooooooooooooooooooooooo"
};
